<svg width="54" height="26" viewBox="0 0 54 26" fill="none" xmlns="http://www.w3.org/2000/svg">
<path d="M11.0615 0L12.802 1.22684V3.15467H11.0615V0Z" fill="#0BA5C4"/>
<path d="M53.2141 0L51.4736 1.22684V3.15467H53.2141V0Z" fill="#0BA5C4"/>
<path d="M2.44759 13.6956C2.76306 13.7609 3.02413 13.8044 3.23082 13.8261C3.44838 13.8479 3.69314 13.8588 3.9651 13.8588C4.88974 13.8588 5.59682 13.6738 6.08634 13.304C6.58674 12.9341 6.83694 12.4065 6.83694 11.7212C6.83694 10.9706 6.57042 10.3886 6.03739 9.97527C5.75456 9.7577 5.43909 9.60541 5.09099 9.51838C4.75377 9.42048 4.30776 9.37153 3.75297 9.37153C3.52453 9.37153 3.31241 9.37697 3.1166 9.38784C2.93167 9.39872 2.70867 9.42048 2.44759 9.45311V13.6956ZM2.44759 8.29459C2.59989 8.31634 2.71955 8.32722 2.80657 8.32722C2.90447 8.32722 3.00238 8.32722 3.10028 8.32722C3.91615 8.32722 4.57428 8.16405 5.07467 7.8377C5.57507 7.50048 5.82527 7.05447 5.82527 6.49969C5.82527 5.98841 5.62402 5.58048 5.22153 5.27589C4.81903 4.96042 4.29144 4.80269 3.63875 4.80269C3.4647 4.80269 3.29065 4.81357 3.1166 4.83532C2.94255 4.8462 2.71955 4.8734 2.44759 4.91691V8.29459ZM3.88351 3.70943C4.47093 3.70943 4.94413 3.74207 5.30311 3.80734C5.66209 3.86173 5.983 3.96507 6.26583 4.11737C6.71184 4.34581 7.0545 4.64496 7.29382 5.01482C7.54402 5.38467 7.66912 5.79261 7.66912 6.23861C7.66912 6.60847 7.58209 6.95657 7.40804 7.28292C7.23399 7.59838 6.98923 7.85946 6.67377 8.06614C6.57586 8.13141 6.47796 8.19124 6.38005 8.24564C6.28215 8.30003 6.13529 8.37073 5.93949 8.45776C6.25495 8.54478 6.49971 8.62093 6.67377 8.6862C6.85869 8.75147 7.04362 8.8385 7.22855 8.94728C7.71807 9.21923 8.09337 9.57821 8.35444 10.0242C8.6264 10.4702 8.76238 10.9597 8.76238 11.4928C8.76238 12.1455 8.56657 12.7492 8.17495 13.304C7.79422 13.8479 7.26663 14.2776 6.59218 14.5931C6.40725 14.6801 6.21688 14.7562 6.02107 14.8215C5.82527 14.8759 5.61314 14.9194 5.3847 14.952C5.15626 14.9847 4.90062 15.0119 4.61779 15.0336C4.33496 15.0554 4.01405 15.0663 3.65507 15.0663H2.44759H0C0.163173 14.9792 0.293712 14.8868 0.391615 14.7889C0.489519 14.6801 0.565666 14.5441 0.620057 14.3809C0.674448 14.2178 0.712521 14.0165 0.734277 13.7772C0.756034 13.5379 0.766912 13.2333 0.766912 12.8634V5.92858C0.766912 5.55872 0.756034 5.25414 0.734277 5.01482C0.712521 4.7755 0.674448 4.57425 0.620057 4.41108C0.565666 4.2479 0.489519 4.11736 0.391615 4.01946C0.293712 3.91068 0.163173 3.81278 0 3.72575H2.44759C2.4911 3.72575 2.58901 3.72575 2.7413 3.72575C2.90447 3.72575 3.10572 3.72031 3.34504 3.70943H3.88351ZM11.0927 5.92858C11.0927 5.55872 11.0818 5.25414 11.0601 5.01482C11.0383 4.7755 11.0002 4.57425 10.9458 4.41108C10.8915 4.2479 10.8153 4.11736 10.7174 4.01946C10.6195 3.91068 10.489 3.81278 10.3258 3.72575H13.5892C13.4261 3.81278 13.2955 3.91068 13.1976 4.01946C13.0997 4.11736 13.0236 4.2479 12.9692 4.41108C12.9148 4.57425 12.8767 4.7755 12.855 5.01482C12.8332 5.25414 12.8223 5.55872 12.8223 5.92858V12.8634C12.8223 13.2333 12.8332 13.5379 12.855 13.7772C12.8767 14.0165 12.9148 14.2178 12.9692 14.3809C13.0236 14.5441 13.0997 14.6801 13.1976 14.7889C13.2955 14.8868 13.4261 14.9792 13.5892 15.0663H10.3258C10.489 14.9792 10.6195 14.8868 10.7174 14.7889C10.8153 14.6801 10.8915 14.5441 10.9458 14.3809C11.0002 14.2178 11.0383 14.0165 11.0601 13.7772C11.0818 13.5379 11.0927 13.2333 11.0927 12.8634V5.92858ZM17.778 12.8634C17.778 13.2333 17.7889 13.5379 17.8107 13.7772C17.8324 14.0165 17.8705 14.2178 17.9249 14.3809C17.9793 14.5441 18.0554 14.6801 18.1533 14.7889C18.2513 14.8868 18.3818 14.9792 18.545 15.0663H15.2815C15.4447 14.9792 15.5752 14.8868 15.6731 14.7889C15.771 14.6801 15.8472 14.5441 15.9016 14.3809C15.956 14.2178 15.994 14.0165 16.0158 13.7772C16.0375 13.5379 16.0484 13.2333 16.0484 12.8634V5.92858C16.0484 5.55872 16.0375 5.25414 16.0158 5.01482C15.994 4.7755 15.956 4.57425 15.9016 4.41108C15.8472 4.2479 15.771 4.11736 15.6731 4.01946C15.5752 3.91068 15.4447 3.81278 15.2815 3.72575H17.778C17.8542 3.72575 17.9575 3.72575 18.0881 3.72575C18.2295 3.72575 18.3927 3.72031 18.5776 3.70943C18.7299 3.69856 18.8659 3.69312 18.9855 3.69312C19.1052 3.69312 19.214 3.69312 19.3119 3.69312C19.8775 3.69312 20.3616 3.74751 20.7641 3.85629C21.1775 3.96507 21.5419 4.13368 21.8574 4.36212C22.2055 4.6232 22.4829 4.95498 22.6895 5.35748C22.8962 5.74909 22.9996 6.15159 22.9996 6.56496C22.9996 6.8913 22.9289 7.21221 22.7875 7.52767C22.6569 7.84314 22.4665 8.13141 22.2163 8.39249C21.9661 8.65357 21.667 8.88201 21.3189 9.07782C20.9817 9.27362 20.6118 9.42048 20.2093 9.51838C20.8511 10.3886 21.4222 11.1338 21.9226 11.7538C22.423 12.363 22.8745 12.8852 23.277 13.3203C23.6903 13.7554 24.0711 14.1144 24.4192 14.3972C24.7673 14.6692 25.1154 14.8922 25.4635 15.0663C25.2024 15.088 24.9848 15.1043 24.8108 15.1152C24.6476 15.1261 24.5116 15.137 24.4029 15.1478C24.2941 15.1587 24.2016 15.1642 24.1255 15.1642C24.0493 15.1642 23.9677 15.1642 23.8807 15.1642C23.6305 15.1642 23.4075 15.137 23.2117 15.0826C23.0159 15.0391 22.8146 14.9575 22.608 14.8378C22.4122 14.7073 22.2055 14.5332 21.9879 14.3157C21.7703 14.0872 21.5147 13.7989 21.221 13.4508C20.7097 12.8525 20.193 12.189 19.6709 11.4601C19.1596 10.7204 18.6701 9.95351 18.2023 9.1594C20.1169 8.83306 21.0741 8.01175 21.0741 6.69549C21.0741 6.12983 20.8783 5.67294 20.4867 5.32484C20.106 4.96586 19.6056 4.78637 18.9855 4.78637C18.8006 4.78637 18.6157 4.79725 18.4307 4.81901C18.2567 4.82989 18.0391 4.86252 17.778 4.91691V12.8634ZM33.7496 13.8751C32.9337 14.8541 31.797 15.3436 30.3393 15.3436C29.5126 15.3436 28.7783 15.1805 28.1365 14.8541C27.5055 14.5169 27.0378 14.0491 26.7332 13.4508C26.6462 13.2985 26.5755 13.1463 26.5211 12.994C26.4775 12.8417 26.4395 12.6731 26.4068 12.4881C26.3742 12.2923 26.3524 12.0748 26.3416 11.8354C26.3307 11.5852 26.3253 11.2861 26.3253 10.938V5.92858C26.3253 5.55872 26.3144 5.25414 26.2926 5.01482C26.2709 4.7755 26.2328 4.57425 26.1784 4.41108C26.124 4.2479 26.0479 4.11736 25.95 4.01946C25.8521 3.91068 25.7215 3.81278 25.5583 3.72575H28.8218C28.6695 3.81278 28.539 3.91068 28.4302 4.01946C28.3323 4.11736 28.2561 4.2479 28.2017 4.41108C28.1473 4.57425 28.1093 4.7755 28.0875 5.01482C28.0658 5.25414 28.0549 5.55872 28.0549 5.92858V10.938C28.0549 11.5145 28.093 11.9605 28.1691 12.276C28.2561 12.5806 28.4193 12.8689 28.6586 13.1408C28.9088 13.4454 29.2243 13.6793 29.605 13.8425C29.9858 14.0056 30.3991 14.0872 30.8451 14.0872C31.3564 14.0872 31.8296 13.9839 32.2647 13.7772C32.7108 13.5596 33.0643 13.2659 33.3254 12.8961C33.4668 12.7111 33.5592 12.5208 33.6028 12.325C33.6572 12.1183 33.6843 11.8518 33.6843 11.5254V5.92858C33.6843 5.55872 33.6735 5.25414 33.6517 5.01482C33.63 4.7755 33.5864 4.57425 33.5212 4.41108C33.4668 4.2479 33.3906 4.11736 33.2927 4.01946C33.1948 3.91068 33.0697 3.81278 32.9174 3.72575H36.1809C36.0286 3.81278 35.8981 3.91068 35.7893 4.01946C35.6914 4.11736 35.6152 4.2479 35.5608 4.41108C35.5064 4.57425 35.4684 4.7755 35.4466 5.01482C35.4249 5.25414 35.414 5.55872 35.414 5.92858V12.8634C35.414 13.2333 35.4249 13.5379 35.4466 13.7772C35.4684 14.0165 35.5064 14.2178 35.5608 14.3809C35.6152 14.5441 35.6914 14.6801 35.7893 14.7889C35.8981 14.8868 36.0286 14.9792 36.1809 15.0663H33.7496V13.8751ZM39.9168 13.0429C39.9168 13.3257 39.9277 13.5705 39.9494 13.7772C39.9821 13.973 40.031 14.1525 40.0963 14.3157C40.1724 14.468 40.2649 14.6039 40.3737 14.7236C40.4933 14.8433 40.6402 14.9575 40.8142 15.0663H37.7466C37.9315 14.9466 38.0838 14.8269 38.2035 14.7073C38.3231 14.5876 38.4156 14.4516 38.4809 14.2993C38.5461 14.147 38.5896 13.973 38.6114 13.7772C38.644 13.5705 38.6604 13.3257 38.6604 13.0429V5.74909C38.6604 5.46626 38.644 5.22694 38.6114 5.03113C38.5896 4.82445 38.5407 4.64496 38.4645 4.49266C38.3993 4.32949 38.3068 4.19351 38.1871 4.08473C38.0784 3.96507 37.937 3.84541 37.7629 3.72575H40.2758C40.2866 3.76926 40.2975 3.80734 40.3084 3.83997C40.3302 3.86173 40.3519 3.89436 40.3737 3.93787C40.4063 3.98139 40.4444 4.03578 40.4879 4.10105C40.5314 4.16632 40.5967 4.25334 40.6837 4.36212L47.0635 12.4881V5.74909C47.0635 5.46626 47.0472 5.22694 47.0146 5.03113C46.9928 4.82445 46.9439 4.64496 46.8677 4.49266C46.8024 4.34037 46.71 4.20439 46.5903 4.08473C46.4709 3.96507 46.324 3.84541 46.15 3.72575H49.2337C49.0488 3.84541 48.8965 3.96507 48.7768 4.08473C48.6572 4.20439 48.5647 4.34037 48.4994 4.49266C48.4342 4.64496 48.3852 4.82445 48.3526 5.03113C48.3308 5.22694 48.32 5.46626 48.32 5.74909V15.621C47.8413 15.4687 47.4116 15.2512 47.0309 14.9684C46.661 14.6746 46.3023 14.2885 45.9542 13.8098L39.9168 6.15702V13.0429ZM51.5035 5.92858C51.5035 5.55872 51.4926 5.25414 51.4708 5.01482C51.4491 4.7755 51.411 4.57425 51.3566 4.41108C51.3022 4.2479 51.2261 4.11736 51.1282 4.01946C51.0303 3.91068 50.8997 3.81278 50.7365 3.72575H54C53.8368 3.81278 53.7063 3.91068 53.6084 4.01946C53.5105 4.11736 53.4343 4.2479 53.3799 4.41108C53.3256 4.57425 53.2875 4.7755 53.2657 5.01482C53.244 5.25414 53.2331 5.55872 53.2331 5.92858V12.8634C53.2331 13.2333 53.244 13.5379 53.2657 13.7772C53.2875 14.0165 53.3256 14.2178 53.3799 14.3809C53.4343 14.5441 53.5105 14.6801 53.6084 14.7889C53.7063 14.8868 53.8368 14.9792 54 15.0663H50.7365C50.8997 14.9792 51.0303 14.8868 51.1282 14.7889C51.2261 14.6801 51.3022 14.5441 51.3566 14.3809C51.411 14.2178 51.4491 14.0165 51.4708 13.7772C51.4926 13.5379 51.5035 13.2333 51.5035 12.8634V5.92858Z" fill="white"/>
<path d="M2.2503 21.5932V23.7688C2.2503 24.0153 2.25753 24.2184 2.27206 24.378C2.28652 24.5375 2.31192 24.6717 2.3482 24.7805C2.38443 24.8892 2.43523 24.9799 2.5005 25.0524C2.56577 25.1177 2.65279 25.1793 2.76157 25.2373H0.585938C0.694719 25.1793 0.781745 25.1177 0.847014 25.0524C0.912283 24.9799 0.96303 24.8892 0.999309 24.7805C1.03553 24.6717 1.06093 24.5375 1.07546 24.378C1.08992 24.2184 1.09721 24.0153 1.09721 23.7688V19.1456C1.09721 18.899 1.08992 18.6959 1.07546 18.5364C1.06093 18.3769 1.03553 18.2427 0.999309 18.1339C0.96303 18.0251 0.912283 17.9381 0.847014 17.8728C0.781745 17.8003 0.694719 17.735 0.585938 17.677H2.76157C2.65279 17.735 2.56577 17.8003 2.5005 17.8728C2.43523 17.9381 2.38443 18.0251 2.3482 18.1339C2.31192 18.2427 2.28652 18.3769 2.27206 18.5364C2.25753 18.6959 2.2503 18.899 2.2503 19.1456V20.712H6.38401V19.1456C6.38401 18.899 6.37672 18.6959 6.36225 18.5364C6.34773 18.3769 6.31874 18.2427 6.27523 18.1339C6.23895 18.0251 6.1882 17.9381 6.12293 17.8728C6.05766 17.8003 5.97423 17.735 5.87273 17.677H8.04837C7.94682 17.735 7.8598 17.8003 7.78729 17.8728C7.72203 17.9381 7.67122 18.0251 7.635 18.1339C7.59872 18.2427 7.57332 18.3804 7.55885 18.5473C7.54433 18.7068 7.5371 18.9062 7.5371 19.1456V23.7688C7.5371 24.0081 7.54433 24.2112 7.55885 24.378C7.57332 24.5375 7.59872 24.6717 7.635 24.7805C7.67122 24.8892 7.72203 24.9799 7.78729 25.0524C7.8598 25.1177 7.94682 25.1793 8.04837 25.2373H5.87273C5.97423 25.1793 6.05766 25.1177 6.12293 25.0524C6.1882 24.9799 6.23895 24.8892 6.27523 24.7805C6.31874 24.6717 6.34773 24.5375 6.36225 24.378C6.37672 24.2112 6.38401 24.0081 6.38401 23.7688V21.5932H2.2503ZM13.2374 18.3079C12.8458 18.3079 12.4614 18.3841 12.0843 18.5364C11.7145 18.6887 11.4026 18.8954 11.1488 19.1564C10.9022 19.4103 10.7064 19.7293 10.5614 20.1137C10.4236 20.4908 10.3547 20.8861 10.3547 21.2994C10.3547 21.7418 10.4344 22.1769 10.594 22.6048C10.7536 23.0327 10.982 23.4098 11.2794 23.7362C11.8015 24.3091 12.4723 24.5955 13.2918 24.5955C13.7197 24.5955 14.1113 24.523 14.4667 24.378C14.822 24.2329 15.1266 24.0299 15.3804 23.7688C15.6342 23.5005 15.83 23.1814 15.9678 22.8115C16.1129 22.4417 16.1854 22.0319 16.1854 21.5823C16.1854 21.1471 16.1165 20.7374 15.9787 20.353C15.8482 19.9614 15.656 19.6133 15.4022 19.3087C14.8438 18.6415 14.1221 18.3079 13.2374 18.3079ZM13.4006 17.4812C13.9445 17.4812 14.4775 17.5827 14.9997 17.7858C15.5218 17.9816 15.9642 18.2572 16.3268 18.6125C16.6894 18.9606 16.9722 19.3849 17.1753 19.8853C17.3856 20.3784 17.4908 20.8861 17.4908 21.4082C17.4908 21.9667 17.3784 22.4924 17.1536 22.9856C16.936 23.4714 16.635 23.8957 16.2507 24.2583C15.8735 24.6209 15.4275 24.9074 14.9127 25.1177C14.3977 25.3207 13.843 25.4223 13.2483 25.4223C12.6609 25.4223 12.1133 25.3207 11.6057 25.1177C11.098 24.9146 10.6557 24.639 10.2786 24.2909C9.90141 23.9356 9.60411 23.5186 9.38655 23.0399C9.16899 22.5613 9.0602 22.0464 9.0602 21.4952C9.0602 20.9223 9.16899 20.3929 9.38655 19.907C9.61135 19.4139 9.91594 18.9896 10.3003 18.6343C10.6919 18.2717 11.1524 17.9888 11.6818 17.7858C12.2112 17.5827 12.7841 17.4812 13.4006 17.4812ZM23.1632 19.0477C22.9166 18.8083 22.6374 18.6234 22.3255 18.4929C22.0137 18.3623 21.6837 18.2971 21.3356 18.2971C20.8788 18.2971 20.5125 18.395 20.2369 18.5908C19.9613 18.7866 19.8236 19.0477 19.8236 19.374C19.8236 19.5191 19.8453 19.6496 19.8888 19.7656C19.9396 19.8744 20.0266 19.9832 20.1499 20.092C20.2804 20.2007 20.4545 20.3168 20.6721 20.4401C20.8969 20.5561 21.1797 20.6939 21.5206 20.8534C21.7599 20.9622 21.9629 21.0601 22.1297 21.1471C22.3038 21.2269 22.4561 21.3031 22.5866 21.3756C22.7172 21.4481 22.8295 21.517 22.9238 21.5823C23.0253 21.6403 23.1197 21.7056 23.2067 21.7781C23.6201 22.1044 23.8267 22.5214 23.8267 23.0291C23.8267 23.3119 23.7651 23.5875 23.6418 23.8558C23.5257 24.1241 23.3517 24.3671 23.1197 24.5847C22.5322 25.1503 21.7308 25.4331 20.7156 25.4331C20.3457 25.4331 20.0049 25.4042 19.693 25.3461C19.3884 25.2954 19.0548 25.2047 18.6922 25.0742L18.3441 23.6491C19.1056 24.2583 19.9432 24.5629 20.857 24.5629C21.1035 24.5629 21.332 24.5339 21.5423 24.4759C21.7526 24.4106 21.9339 24.3272 22.0862 24.2257C22.2385 24.1169 22.3582 23.9936 22.4452 23.8558C22.5322 23.7108 22.5757 23.5549 22.5757 23.3881C22.5757 23.2358 22.5395 23.0871 22.467 22.942C22.4017 22.797 22.311 22.6737 22.195 22.5722C22.1297 22.5142 22.0608 22.4598 21.9883 22.409C21.9158 22.3583 21.8252 22.3039 21.7164 22.2458C21.6076 22.1878 21.4734 22.1225 21.3139 22.05C21.1543 21.9702 20.9585 21.876 20.7265 21.7672C20.5016 21.6657 20.3094 21.575 20.1499 21.4952C19.9903 21.4155 19.8489 21.343 19.7257 21.2777C19.6024 21.2052 19.4936 21.1363 19.3993 21.071C19.3123 21.0057 19.2289 20.9332 19.1491 20.8534C18.9605 20.6866 18.8119 20.4872 18.7031 20.2551C18.6016 20.0231 18.5508 19.7801 18.5508 19.5263C18.5508 19.2145 18.6161 18.9352 18.7466 18.6887C18.8844 18.4348 19.0766 18.2209 19.3232 18.0469C19.577 17.8656 19.878 17.7278 20.2261 17.6335C20.5814 17.5392 20.9767 17.4921 21.4118 17.4921C21.7164 17.4921 22.0064 17.5138 22.282 17.5573C22.5576 17.5936 22.8513 17.6553 23.1632 17.7423V19.0477ZM26.4818 23.8884C26.4818 24.077 26.4891 24.2402 26.5036 24.378C26.5253 24.5157 26.558 24.6354 26.6015 24.7369C26.6523 24.8385 26.7139 24.9291 26.7864 25.0089C26.8662 25.0887 26.9641 25.1648 27.0801 25.2373H24.8175C24.9262 25.1793 25.0133 25.1177 25.0785 25.0524C25.1438 24.9799 25.1946 24.8892 25.2308 24.7805C25.2671 24.6717 25.2925 24.5375 25.307 24.378C25.3215 24.2184 25.3287 24.0153 25.3287 23.7688V19.1456C25.3287 18.899 25.3215 18.6959 25.307 18.5364C25.2925 18.3769 25.2671 18.2427 25.2308 18.1339C25.1946 18.0251 25.1438 17.9381 25.0785 17.8728C25.0133 17.8003 24.9262 17.735 24.8175 17.677H25.9162C26.0032 17.677 26.0757 17.677 26.1337 17.677C26.1918 17.677 26.2607 17.677 26.3404 17.677C26.4202 17.677 26.5253 17.677 26.6559 17.677C26.7864 17.6698 26.9678 17.6661 27.1998 17.6661H27.5588C27.8851 17.6661 28.1644 17.6879 28.3964 17.7314C28.6357 17.7749 28.8606 17.8474 29.0708 17.949C29.4262 18.123 29.7091 18.366 29.9193 18.6778C30.1297 18.9824 30.2348 19.316 30.2348 19.6786C30.2348 19.9759 30.1659 20.2551 30.0281 20.5162C29.8976 20.7773 29.7163 21.0057 29.4842 21.2015C29.2594 21.3973 28.9911 21.5533 28.6792 21.6693C28.3746 21.7781 28.0483 21.8325 27.7002 21.8325C27.5189 21.8325 27.3738 21.8216 27.2651 21.7998C27.1563 21.7781 27.0257 21.7382 26.8734 21.6802C27.2361 21.6367 27.5261 21.575 27.7437 21.4952C27.9613 21.4082 28.1644 21.2849 28.3529 21.1254C28.7518 20.7773 28.9512 20.3676 28.9512 19.8962C28.9512 19.4465 28.8025 19.0984 28.5052 18.8518C28.2079 18.598 27.7981 18.4711 27.2759 18.4711C27.1309 18.4711 27.0004 18.4783 26.8843 18.4929C26.7755 18.5001 26.6414 18.5219 26.4818 18.5581V23.8884ZM31.6071 19.1456C31.6071 18.899 31.5999 18.6959 31.5853 18.5364C31.5708 18.3769 31.5455 18.2427 31.5092 18.1339C31.4729 18.0251 31.4222 17.9381 31.3569 17.8728C31.2916 17.8003 31.2046 17.735 31.0958 17.677H33.2715C33.1627 17.735 33.0756 17.8003 33.0104 17.8728C32.9451 17.9381 32.8944 18.0251 32.8581 18.1339C32.8218 18.2427 32.7965 18.3769 32.7819 18.5364C32.7674 18.6959 32.7602 18.899 32.7602 19.1456V23.7688C32.7602 24.0153 32.7674 24.2184 32.7819 24.378C32.7965 24.5375 32.8218 24.6717 32.8581 24.7805C32.8944 24.8892 32.9451 24.9799 33.0104 25.0524C33.0756 25.1177 33.1627 25.1793 33.2715 25.2373H31.0958C31.2046 25.1793 31.2916 25.1177 31.3569 25.0524C31.4222 24.9799 31.4729 24.8892 31.5092 24.7805C31.5455 24.6717 31.5708 24.5375 31.5853 24.378C31.5999 24.2184 31.6071 24.0153 31.6071 23.7688V19.1456ZM39.3927 18.9715C39.3057 18.8047 39.186 18.6923 39.0337 18.6343C38.8887 18.569 38.6494 18.5364 38.3158 18.5364C38.2505 18.5364 38.1961 18.5364 38.1526 18.5364C38.1164 18.5364 38.0729 18.54 38.0221 18.5473C37.9785 18.5473 37.9169 18.5509 37.8371 18.5581C37.7574 18.5581 37.6486 18.5618 37.5108 18.569H37.3259V23.8884C37.3259 24.077 37.3331 24.2402 37.3476 24.378C37.3694 24.5085 37.402 24.6245 37.4455 24.7261C37.489 24.8276 37.5507 24.9182 37.6304 24.998C37.7102 25.0778 37.8118 25.1576 37.935 25.2373H35.6615C35.763 25.1866 35.8464 25.1249 35.9117 25.0524C35.977 24.9799 36.0278 24.8892 36.064 24.7805C36.1075 24.6717 36.1365 24.5375 36.151 24.378C36.1655 24.2112 36.1728 24.0081 36.1728 23.7688V18.569C36.0568 18.5545 35.9081 18.5473 35.7268 18.5473C35.5455 18.54 35.3859 18.5364 35.2481 18.5364C35.0668 18.5364 34.9073 18.5436 34.7695 18.5581C34.6389 18.5654 34.5193 18.5871 34.4105 18.6234C34.3017 18.6524 34.1929 18.6959 34.0842 18.7539C33.9827 18.812 33.8739 18.8845 33.7578 18.9715L34.1821 17.6009C34.2473 17.6226 34.3344 17.6407 34.4431 17.6552C34.5519 17.6698 34.6607 17.677 34.7695 17.677H39.0881C39.2114 17.6698 39.3093 17.6661 39.3818 17.6661C39.4544 17.6589 39.5051 17.6552 39.5341 17.6552C39.5704 17.648 39.603 17.6444 39.632 17.6444C39.6611 17.6371 39.7046 17.6226 39.7626 17.6009L39.3927 18.9715ZM43.7123 18.6452L42.5375 21.6475H44.8763L43.7123 18.6452ZM42.2655 22.3873L41.6128 24.1386C41.5258 24.3707 41.4823 24.5665 41.4823 24.7261C41.4823 24.8348 41.5113 24.9291 41.5693 25.0089C41.6346 25.0814 41.7434 25.1576 41.8957 25.2373H39.7853C39.9158 25.1503 40.0282 25.0705 40.1225 24.998C40.2168 24.9182 40.3002 24.824 40.3727 24.7152C40.4525 24.5992 40.5286 24.4613 40.6012 24.3018C40.6737 24.1423 40.7571 23.9392 40.8514 23.6926L42.8747 18.6452C42.9617 18.4204 43.0052 18.2463 43.0052 18.123C43.0052 18.0215 42.9798 17.9381 42.9291 17.8728C42.8783 17.8075 42.7877 17.7423 42.6571 17.677H44.4847L46.8995 23.6926C46.9865 23.9174 47.0703 24.1097 47.1497 24.2692C47.2296 24.4287 47.3096 24.5701 47.389 24.6934C47.476 24.8095 47.5668 24.911 47.6609 24.998C47.7627 25.085 47.8785 25.1648 48.009 25.2373H45.6269C45.8009 25.1358 45.9133 25.0596 45.9641 25.0089C46.0149 24.9509 46.0403 24.8747 46.0403 24.7805C46.0403 24.7515 46.0366 24.7224 46.0294 24.6934C46.0294 24.6644 46.0221 24.6282 46.0076 24.5847C45.9931 24.5411 45.9713 24.4831 45.9424 24.4106C45.9206 24.3381 45.888 24.2474 45.8445 24.1386L45.17 22.3873H42.2655ZM50.2565 24.3018C50.5105 24.3381 50.7677 24.3671 51.0288 24.3888C51.2975 24.4106 51.5548 24.4215 51.8012 24.4215C52.0046 24.4215 52.1928 24.4106 52.3668 24.3888C52.5409 24.3599 52.7079 24.3199 52.8672 24.2692C53.0342 24.2112 53.1974 24.1386 53.3568 24.0516C53.5237 23.9574 53.7016 23.8449 53.8898 23.7144L53.2806 25.2373H48.5921C48.7009 25.1793 48.7879 25.1177 48.8532 25.0524C48.9185 24.9799 48.9696 24.8892 49.0055 24.7805C49.0419 24.6717 49.0675 24.5375 49.0816 24.378C49.0963 24.2184 49.1034 24.0153 49.1034 23.7688V19.1456C49.1034 18.899 49.0963 18.6959 49.0816 18.5364C49.0675 18.3769 49.0419 18.2427 49.0055 18.1339C48.9696 18.0251 48.9185 17.9381 48.8532 17.8728C48.7879 17.8003 48.7009 17.735 48.5921 17.677H50.7678C50.659 17.735 50.5719 17.8003 50.5067 17.8728C50.4414 17.9381 50.3908 18.0251 50.3544 18.1339C50.3185 18.2427 50.2929 18.3769 50.2782 18.5364C50.2641 18.6959 50.2565 18.899 50.2565 19.1456V24.3018Z" fill="white"/>
</svg>
