<svg width="28" height="28" viewBox="0 0 28 28" fill="none" xmlns="http://www.w3.org/2000/svg">
<path d="M5.291 9.32773C5.13571 9.32773 4.97798 9.28697 4.83482 9.20204C4.40921 8.9492 4.26896 8.39983 4.52131 7.97422C6.19803 5.14879 6.20337 3.62689 4.54218 2.36025C4.1486 2.05985 4.07289 1.49787 4.3733 1.10429C4.67321 0.710705 5.23471 0.634513 5.62877 0.934915C9.17585 3.63999 6.99393 7.31761 6.06263 8.88853C5.89472 9.1705 5.59674 9.32773 5.291 9.32773Z" fill="black"/>
<path d="M10.3093 5.81318C10.2516 5.81318 10.1928 5.80736 10.1341 5.79571C9.64882 5.69962 9.33337 5.22791 9.42946 4.74261C9.59058 3.93215 9.14604 2.54807 8.00461 1.57892C7.62753 1.25862 7.58094 0.693243 7.90173 0.315678C8.22251 -0.0604316 8.78741 -0.107506 9.16449 0.212794C10.6714 1.49254 11.5032 3.49829 11.1872 5.09105C11.1023 5.51763 10.7281 5.81318 10.3093 5.81318Z" fill="black"/>
<path d="M19.5166 27.9997C19.0032 27.9997 18.4781 27.9803 17.9452 27.941C12.901 27.5693 8.53086 25.5232 5.95488 22.329C3.99377 19.8967 3.09645 17.127 3.28863 14.0973C3.31968 13.6028 3.75403 13.2402 4.23933 13.2592C4.73337 13.2902 5.10802 13.7158 5.07696 14.2099C4.91196 16.815 5.65544 19.1027 7.35012 21.2036C9.616 24.014 13.5266 25.8183 18.0777 26.1537C21.3836 26.3992 24.4779 25.7664 25.7989 24.5808C26.1769 23.9654 26.6263 20.0398 25.4373 15.593C24.6361 12.5972 22.8681 8.63619 18.9964 6.77651C18.5504 6.56249 18.3626 6.0272 18.5771 5.58121C18.7906 5.13425 19.3259 4.94595 19.7724 5.16142C25.4538 7.89028 27.1941 14.2667 27.726 17.8249C28.1987 20.9857 28.1196 24.8802 27.0427 25.8722C25.5756 27.2242 22.775 27.9997 19.5166 27.9997Z" fill="black"/>
<path d="M11.8756 12.4545C11.8572 12.4545 11.8383 12.4541 11.8198 12.4531C11.3258 12.4225 10.9502 11.9979 10.9807 11.5038C11.3365 5.70545 14.7224 2.66455 20.5024 2.95233C20.9964 2.9766 21.3774 3.39687 21.3531 3.89139C21.3288 4.38543 20.9105 4.7727 20.4141 4.74213C15.6382 4.50578 13.0632 6.81922 12.7686 11.614C12.7395 12.0886 12.3449 12.4545 11.8756 12.4545Z" fill="black"/>
<path d="M9.32067 8.44596C9.26971 8.44596 9.2173 8.44111 9.16537 8.43237C8.67813 8.34696 8.352 7.88252 8.43742 7.39528C9.08044 3.72057 12.4426 0.000244141 17.6227 0.000244141C18.1177 0.000244141 18.5191 0.401104 18.5191 0.896112C18.5191 1.39112 18.1177 1.79198 17.6227 1.79198C13.4307 1.79198 10.7164 4.7664 10.2015 7.7049C10.1258 8.13925 9.74725 8.44596 9.32067 8.44596Z" fill="black"/>
<path d="M8.70876 11.1447C8.49522 11.1447 8.28121 11.069 8.10989 10.9152C6.17305 9.1734 2.90309 8.59735 1.17929 9.1734C0.710975 9.33015 0.202863 9.07586 0.0465959 8.60608C-0.109671 8.1368 0.144142 7.62917 0.613429 7.4729C2.84097 6.73185 6.79958 7.32634 9.30811 9.58251C9.67596 9.91397 9.70605 10.4803 9.37508 10.8477C9.19843 11.0447 8.95383 11.1447 8.70876 11.1447Z" fill="black"/>
<path d="M6.02115 13.4761C5.82605 13.4761 5.62951 13.413 5.46499 13.2825C4.37306 12.4162 2.43039 12.359 1.15648 12.7462C0.68185 12.8884 0.182474 12.6225 0.0388246 12.1493C-0.104825 11.6756 0.162577 11.1753 0.635746 11.0316C2.33382 10.5163 4.91757 10.5619 6.57827 11.879C6.96603 12.1867 7.03106 12.7501 6.72338 13.1379C6.54673 13.3596 6.28515 13.4761 6.02115 13.4761Z" fill="black"/>
<path d="M8.60016 27.7168C8.57977 27.7168 8.55988 27.7163 8.53949 27.7149C8.04788 27.6819 7.67517 27.2611 7.70477 26.7695C7.70866 26.704 7.81494 25.152 8.89231 23.8169C9.20339 23.4326 9.76779 23.3724 10.1522 23.683C10.537 23.9941 10.5972 24.558 10.2866 24.9433C9.57852 25.8203 9.4936 26.8738 9.49263 26.884C9.45866 27.3548 9.06556 27.7168 8.60016 27.7168Z" fill="black"/>
<path d="M4.26244 27.3106C3.82567 26.6346 4.67398 24.2003 4.94089 23.6063C5.14375 23.155 5.67515 22.955 6.12551 23.1569C6.57685 23.3598 6.77825 23.8902 6.5749 24.3415C5.97944 25.6655 5.91004 26.8544 5.90956 26.8661L5.01951 26.8185L5.01466 26.8234L4.26244 27.3106Z" fill="black"/>
<path d="M18.6575 21.4729C18.5488 21.4729 18.4386 21.453 18.3309 21.4108C17.8703 21.2308 17.6427 20.711 17.8233 20.25C18.6856 18.0452 18.6284 15.7629 17.6617 13.8236C16.9245 12.3449 15.718 11.2165 14.513 10.8793C14.0364 10.7463 13.7584 10.2518 13.8918 9.7752C14.0253 9.29912 14.5198 9.02007 14.9964 9.1545C16.6993 9.63058 18.295 11.0778 19.2656 13.0248C20.4614 15.4231 20.5414 18.2214 19.4922 20.9037C19.3539 21.257 19.0157 21.4729 18.6575 21.4729Z" fill="black"/>
<path d="M22.4616 15.6299C22.1107 15.6299 21.7778 15.4222 21.6342 15.0781C21.0261 13.6198 19.6813 13.7324 18.6588 14.0842C18.191 14.2468 17.6809 13.9964 17.5198 13.529C17.3587 13.0612 17.6071 12.5511 18.0755 12.39C20.4379 11.5762 22.4359 12.342 23.2881 14.3885C23.4788 14.8451 23.2624 15.3693 22.8057 15.56C22.6936 15.6076 22.5766 15.6299 22.4616 15.6299Z" fill="black"/>
</svg>
