<svg width="107" height="50" viewBox="0 0 107 50" fill="none" xmlns="http://www.w3.org/2000/svg">
<path d="M21.7456 -2.28882e-05L25.1673 2.41187V6.20186H21.7456V-2.28882e-05Z" fill="#0BA5C4"/>
<path d="M104.615 -2.28882e-05L101.194 2.41187V6.20186H104.615V-2.28882e-05Z" fill="#0BA5C4"/>
<path d="M4.8118 26.9247C5.43199 27.053 5.94525 27.1386 6.35158 27.1813C6.7793 27.2241 7.26048 27.2455 7.79512 27.2455C9.61292 27.2455 11.003 26.8819 11.9654 26.1548C12.9491 25.4277 13.441 24.3905 13.441 23.0432C13.441 21.5676 12.917 20.4234 11.8691 19.6108C11.3131 19.1831 10.6929 18.8837 10.0086 18.7126C9.34559 18.5201 8.46878 18.4239 7.3781 18.4239C6.929 18.4239 6.51198 18.4345 6.12703 18.4559C5.76347 18.4773 5.32506 18.5201 4.8118 18.5842V26.9247ZM4.8118 16.3067C5.11121 16.3494 5.34645 16.3708 5.51754 16.3708C5.71001 16.3708 5.90248 16.3708 6.09495 16.3708C7.69889 16.3708 8.99273 16.05 9.97648 15.4085C10.9602 14.7455 11.4521 13.8687 11.4521 12.778C11.4521 11.7729 11.0565 10.9709 10.2652 10.3721C9.47391 9.75191 8.4367 9.44182 7.15355 9.44182C6.81138 9.44182 6.4692 9.4632 6.12703 9.50598C5.78486 9.52736 5.34645 9.58083 4.8118 9.66637V16.3067ZM7.63473 7.29255C8.78956 7.29255 9.71985 7.3567 10.4256 7.48502C11.1313 7.59195 11.7622 7.79511 12.3182 8.09452C13.195 8.54362 13.8687 9.13173 14.3392 9.85884C14.8311 10.586 15.077 11.3879 15.077 12.2647C15.077 12.9919 14.9059 13.6762 14.5637 14.3178C14.2216 14.938 13.7404 15.4512 13.1202 15.8576C12.9277 15.9859 12.7352 16.1035 12.5428 16.2104C12.3503 16.3174 12.0616 16.4564 11.6766 16.6274C12.2968 16.7985 12.778 16.9482 13.1202 17.0766C13.4837 17.2049 13.8473 17.376 14.2109 17.5898C15.1732 18.1245 15.911 18.8302 16.4243 19.707C16.9589 20.5838 17.2263 21.5462 17.2263 22.5941C17.2263 23.8772 16.8413 25.0641 16.0714 26.1548C15.3229 27.2241 14.2857 28.0688 12.9598 28.689C12.5962 28.8601 12.222 29.0098 11.837 29.1381C11.4521 29.2451 11.0351 29.3306 10.586 29.3948C10.1369 29.4589 9.6343 29.5124 9.07827 29.5552C8.52224 29.5979 7.89136 29.6193 7.18563 29.6193H4.8118H0C0.320787 29.4482 0.577418 29.2665 0.76989 29.074C0.962362 28.8601 1.11206 28.5928 1.21899 28.272C1.32592 27.9512 1.40077 27.5556 1.44354 27.0851C1.48631 26.6146 1.5077 26.0158 1.5077 25.2887V11.6552C1.5077 10.9281 1.48631 10.3293 1.44354 9.85884C1.40077 9.38836 1.32592 8.99272 1.21899 8.67193C1.11206 8.35114 0.962362 8.09451 0.76989 7.90204C0.577418 7.68818 0.320787 7.49571 0 7.32463H4.8118C4.89735 7.32463 5.08982 7.32463 5.38922 7.32463C5.71001 7.32463 6.10565 7.31393 6.57613 7.29255H7.63473ZM21.8075 11.6552C21.8075 10.9281 21.7861 10.3293 21.7434 9.85884C21.7006 9.38836 21.6258 8.99272 21.5188 8.67193C21.4119 8.35114 21.2622 8.09451 21.0697 7.90204C20.8772 7.68818 20.6206 7.49571 20.2998 7.32463H26.7156C26.3948 7.49571 26.1382 7.68818 25.9457 7.90204C25.7532 8.09451 25.6035 8.35114 25.4966 8.67193C25.3896 8.99272 25.3148 9.38836 25.272 9.85884C25.2293 10.3293 25.2079 10.9281 25.2079 11.6552V25.2887C25.2079 26.0158 25.2293 26.6146 25.272 27.0851C25.3148 27.5556 25.3896 27.9512 25.4966 28.272C25.6035 28.5928 25.7532 28.8601 25.9457 29.074C26.1382 29.2665 26.3948 29.4482 26.7156 29.6193H20.2998C20.6206 29.4482 20.8772 29.2665 21.0697 29.074C21.2622 28.8601 21.4119 28.5928 21.5188 28.272C21.6258 27.9512 21.7006 27.5556 21.7434 27.0851C21.7861 26.6146 21.8075 26.0158 21.8075 25.2887V11.6552ZM34.9505 25.2887C34.9505 26.0158 34.9719 26.6146 35.0146 27.0851C35.0574 27.5556 35.1323 27.9512 35.2392 28.272C35.3461 28.5928 35.4958 28.8601 35.6883 29.074C35.8808 29.2665 36.1374 29.4482 36.4582 29.6193H30.0425C30.3632 29.4482 30.6199 29.2665 30.8123 29.074C31.0048 28.8601 31.1545 28.5928 31.2614 28.272C31.3684 27.9512 31.4432 27.5556 31.486 27.0851C31.5288 26.6146 31.5501 26.0158 31.5501 25.2887V11.6552C31.5501 10.9281 31.5288 10.3293 31.486 9.85884C31.4432 9.38836 31.3684 8.99272 31.2614 8.67193C31.1545 8.35114 31.0048 8.09451 30.8123 7.90204C30.6199 7.68818 30.3632 7.49571 30.0425 7.32463H34.9505C35.1002 7.32463 35.3034 7.32463 35.56 7.32463C35.838 7.32463 36.1588 7.31393 36.5223 7.29255C36.8217 7.27116 37.0891 7.26047 37.3243 7.26047C37.5596 7.26047 37.7734 7.26047 37.9659 7.26047C39.078 7.26047 40.0296 7.3674 40.8209 7.58125C41.6336 7.79511 42.35 8.12659 42.9702 8.5757C43.6545 9.08896 44.1999 9.74122 44.6062 10.5325C45.0125 11.3024 45.2157 12.0937 45.2157 12.9063C45.2157 13.5479 45.0767 14.1788 44.7987 14.799C44.542 15.4192 44.1678 15.9859 43.6759 16.4991C43.184 17.0124 42.5959 17.4615 41.9116 17.8464C41.2486 18.2314 40.5215 18.5201 39.7302 18.7126C40.992 20.4234 42.1147 21.8884 43.0985 23.1073C44.0822 24.305 44.9697 25.3315 45.761 26.1869C46.5737 27.0423 47.3222 27.7481 48.0065 28.3041C48.6909 28.8387 49.3752 29.2771 50.0596 29.6193C49.5463 29.6621 49.1186 29.6942 48.7764 29.7156C48.4556 29.7369 48.1883 29.7583 47.9744 29.7797C47.7606 29.8011 47.5788 29.8118 47.4291 29.8118C47.2794 29.8118 47.119 29.8118 46.9479 29.8118C46.456 29.8118 46.0176 29.7583 45.6327 29.6514C45.2478 29.5659 44.8521 29.4055 44.4458 29.1702C44.0608 28.9136 43.6545 28.5714 43.2268 28.1437C42.7991 27.6946 42.2965 27.1279 41.7191 26.4435C40.714 25.2673 39.6981 23.9628 38.6716 22.5299C37.6665 21.0757 36.7041 19.568 35.7845 18.0068C39.5484 17.3653 41.4304 15.7506 41.4304 13.1629C41.4304 12.0509 41.0454 11.1527 40.2756 10.4683C39.5271 9.76261 38.5433 9.40974 37.3243 9.40974C36.9608 9.40974 36.5972 9.43113 36.2336 9.4739C35.8915 9.49528 35.4637 9.55944 34.9505 9.66637V25.2887ZM66.3495 27.2776C64.7456 29.2023 62.5108 30.1647 59.6451 30.1647C58.0198 30.1647 56.5762 29.8439 55.3145 29.2023C54.0741 28.5393 53.1545 27.6197 52.5557 26.4435C52.3846 26.1441 52.2456 25.8447 52.1387 25.5453C52.0531 25.2459 51.9783 24.9144 51.9141 24.5509C51.85 24.1659 51.8072 23.7382 51.7858 23.2677C51.7644 22.7759 51.7537 22.1878 51.7537 21.5034V11.6552C51.7537 10.9281 51.7324 10.3293 51.6896 9.85884C51.6468 9.38836 51.572 8.99272 51.465 8.67193C51.3581 8.35114 51.2084 8.09451 51.0159 7.90204C50.8235 7.68818 50.5668 7.49571 50.246 7.32463H56.6618C56.3624 7.49571 56.1058 7.68818 55.8919 7.90204C55.6994 8.09451 55.5497 8.35114 55.4428 8.67193C55.3359 8.99272 55.261 9.38836 55.2182 9.85884C55.1755 10.3293 55.1541 10.9281 55.1541 11.6552V21.5034C55.1541 22.6369 55.2289 23.5137 55.3786 24.1339C55.5497 24.7327 55.8705 25.2994 56.341 25.834C56.8329 26.4328 57.4531 26.8926 58.2016 27.2134C58.9501 27.5342 59.7627 27.6946 60.6395 27.6946C61.6447 27.6946 62.575 27.4914 63.4304 27.0851C64.3072 26.6574 65.0022 26.08 65.5155 25.3529C65.7935 24.9893 65.9753 24.615 66.0608 24.2301C66.1678 23.8238 66.2212 23.2998 66.2212 22.6582V11.6552C66.2212 10.9281 66.1999 10.3293 66.1571 9.85884C66.1143 9.38836 66.0288 8.99272 65.9005 8.67193C65.7935 8.35114 65.6438 8.09451 65.4513 7.90204C65.2589 7.68818 65.0129 7.49571 64.7135 7.32463H71.1293C70.8299 7.49571 70.5732 7.68818 70.3594 7.90204C70.1669 8.09451 70.0172 8.35114 69.9103 8.67193C69.8034 8.99272 69.7285 9.38836 69.6857 9.85884C69.643 10.3293 69.6216 10.9281 69.6216 11.6552V25.2887C69.6216 26.0158 69.643 26.6146 69.6857 27.0851C69.7285 27.5556 69.8034 27.9512 69.9103 28.272C70.0172 28.5928 70.1669 28.8601 70.3594 29.074C70.5732 29.2665 70.8299 29.4482 71.1293 29.6193H66.3495V27.2776ZM78.4738 25.6416C78.4738 26.1976 78.4952 26.6788 78.538 27.0851C78.6021 27.47 78.6984 27.8229 78.8267 28.1437C78.9764 28.4431 79.1581 28.7104 79.372 28.9457C79.6072 29.1809 79.896 29.4055 80.2381 29.6193H74.2073C74.5709 29.3841 74.8703 29.1488 75.1055 28.9136C75.3408 28.6783 75.5226 28.411 75.6509 28.1116C75.7792 27.8122 75.8647 27.47 75.9075 27.0851C75.9717 26.6788 76.0037 26.1976 76.0037 25.6416V11.3024C76.0037 10.7464 75.9717 10.2759 75.9075 9.89092C75.8647 9.48459 75.7685 9.13173 75.6188 8.83233C75.4905 8.51154 75.3087 8.24422 75.0735 8.03036C74.8596 7.79511 74.5816 7.55987 74.2394 7.32463H79.1795C79.2009 7.41017 79.2223 7.48502 79.2437 7.54918C79.2865 7.59195 79.3292 7.6561 79.372 7.74165C79.4362 7.82719 79.511 7.93412 79.5966 8.06244C79.6821 8.19075 79.8104 8.36184 79.9815 8.5757L92.5238 24.5509V11.3024C92.5238 10.7464 92.4918 10.2759 92.4276 9.89092C92.3848 9.48459 92.2886 9.13173 92.1389 8.83233C92.0106 8.53292 91.8288 8.2656 91.5936 8.03036C91.3587 7.79511 91.07 7.55987 90.7279 7.32463H96.7903C96.4267 7.55987 96.1274 7.79511 95.8921 8.03036C95.6569 8.2656 95.4751 8.53292 95.3468 8.83233C95.2185 9.13173 95.1222 9.48459 95.0581 9.89092C95.0153 10.2759 94.9939 10.7464 94.9939 11.3024V30.71C94.0529 30.4106 93.2082 29.9829 92.4597 29.4269C91.7326 28.8494 91.0273 28.0902 90.3429 27.1493L78.4738 12.1044V25.6416ZM101.252 11.6552C101.252 10.9281 101.231 10.3293 101.188 9.85884C101.146 9.38836 101.071 8.99272 100.964 8.67193C100.857 8.35114 100.707 8.09451 100.515 7.90204C100.322 7.68818 100.066 7.49571 99.7448 7.32463H106.16C105.84 7.49571 105.583 7.68818 105.391 7.90204C105.198 8.09451 105.048 8.35114 104.942 8.67193C104.835 8.99272 104.76 9.38836 104.717 9.85884C104.674 10.3293 104.653 10.9281 104.653 11.6552V25.2887C104.653 26.0158 104.674 26.6146 104.717 27.0851C104.76 27.5556 104.835 27.9512 104.942 28.272C105.048 28.5928 105.198 28.8601 105.391 29.074C105.583 29.2665 105.84 29.4482 106.16 29.6193H99.7448C100.066 29.4482 100.322 29.2665 100.515 29.074C100.707 28.8601 100.857 28.5928 100.964 28.272C101.071 27.9512 101.146 27.5556 101.188 27.0851C101.231 26.6146 101.252 26.0158 101.252 25.2887V11.6552Z" fill="#1A4382"/>
<path d="M4.42462 42.4508V46.7279C4.42462 47.2126 4.43884 47.6119 4.46739 47.9255C4.49583 48.2392 4.54577 48.503 4.61709 48.7168C4.6883 48.9307 4.78817 49.1089 4.91649 49.2515C5.0448 49.3798 5.21589 49.5009 5.42975 49.615H1.15259C1.36645 49.5009 1.53753 49.3798 1.66585 49.2515C1.79416 49.1089 1.89393 48.9307 1.96525 48.7168C2.03646 48.503 2.0864 48.2392 2.11495 47.9255C2.14339 47.6119 2.15772 47.2126 2.15772 46.7279V37.639C2.15772 37.1543 2.14339 36.755 2.11495 36.4414C2.0864 36.1277 2.03646 35.8639 1.96525 35.6501C1.89393 35.4362 1.79416 35.2651 1.66585 35.1368C1.53753 34.9943 1.36645 34.866 1.15259 34.7519H5.42975C5.21589 34.866 5.0448 34.9943 4.91649 35.1368C4.78817 35.2651 4.6883 35.4362 4.61709 35.6501C4.54577 35.8639 4.49583 36.1277 4.46739 36.4414C4.43884 36.755 4.42462 37.1543 4.42462 37.639V40.7185H12.5512V37.639C12.5512 37.1543 12.5369 36.755 12.5084 36.4414C12.4799 36.1277 12.4229 35.8639 12.3374 35.6501C12.266 35.4362 12.1663 35.2651 12.038 35.1368C11.9096 34.9943 11.7456 34.866 11.5461 34.7519H15.8232C15.6236 34.866 15.4525 34.9943 15.31 35.1368C15.1817 35.2651 15.0818 35.4362 15.0106 35.6501C14.9393 35.8639 14.8893 36.1348 14.8609 36.4627C14.8323 36.7764 14.8181 37.1685 14.8181 37.639V46.7279C14.8181 47.1984 14.8323 47.5976 14.8609 47.9255C14.8893 48.2392 14.9393 48.503 15.0106 48.7168C15.0818 48.9307 15.1817 49.1089 15.31 49.2515C15.4525 49.3798 15.6236 49.5009 15.8232 49.615H11.5461C11.7456 49.5009 11.9096 49.3798 12.038 49.2515C12.1663 49.1089 12.266 48.9307 12.3374 48.7168C12.4229 48.503 12.4799 48.2392 12.5084 47.9255C12.5369 47.5976 12.5512 47.1984 12.5512 46.7279V42.4508H4.42462ZM26.0246 35.9923C25.2547 35.9923 24.499 36.142 23.7577 36.4414C23.0306 36.7408 22.4175 37.1471 21.9185 37.6604C21.4337 38.1594 21.0488 38.7866 20.7637 39.5423C20.4927 40.2836 20.3574 41.0607 20.3574 41.8734C20.3574 42.743 20.5141 43.5984 20.8278 44.4397C21.1415 45.2809 21.5906 46.0222 22.1752 46.6638C23.2017 47.7901 24.5204 48.3533 26.1315 48.3533C26.9726 48.3533 27.7425 48.2107 28.4412 47.9255C29.1398 47.6404 29.7386 47.2412 30.2376 46.7279C30.7365 46.2005 31.1215 45.5731 31.3924 44.846C31.6775 44.1189 31.8201 43.3134 31.8201 42.4294C31.8201 41.574 31.6847 40.7685 31.4138 40.0128C31.1572 39.2429 30.7793 38.5586 30.2804 37.9598C29.1825 36.6481 27.7639 35.9923 26.0246 35.9923ZM26.3454 34.3669C27.4147 34.3669 28.4626 34.5666 29.4891 34.9657C30.5156 35.3507 31.3853 35.8925 32.0982 36.5911C32.811 37.2754 33.367 38.1095 33.7663 39.0932C34.1796 40.0627 34.3864 41.0607 34.3864 42.0872C34.3864 43.1851 34.1654 44.2186 33.7235 45.1882C33.2958 46.1434 32.704 46.9774 31.9485 47.6903C31.207 48.4032 30.3302 48.9663 29.318 49.3798C28.3057 49.7789 27.215 49.9786 26.046 49.9786C24.8911 49.9786 23.8147 49.7789 22.8167 49.3798C21.8187 48.9806 20.949 48.4388 20.2077 47.7544C19.4662 47.0559 18.8817 46.2361 18.454 45.2951C18.0263 44.3541 17.8124 43.3418 17.8124 42.2583C17.8124 41.132 18.0263 40.0912 18.454 39.136C18.896 38.1664 19.4948 37.3324 20.2504 36.6338C21.0203 35.9209 21.9256 35.3649 22.9664 34.9657C24.0072 34.5666 25.1335 34.3669 26.3454 34.3669ZM45.538 37.4465C45.0531 36.976 44.5043 36.6124 43.8913 36.3558C43.2781 36.0992 42.6295 35.9709 41.9451 35.9709C41.0469 35.9709 40.3269 36.1633 39.7852 36.5483C39.2434 36.9332 38.9725 37.4465 38.9725 38.0881C38.9725 38.3733 39.0153 38.6299 39.1008 38.858C39.2006 39.0718 39.3717 39.2857 39.6141 39.4995C39.8707 39.7134 40.2129 39.9415 40.6406 40.1839C41.0826 40.412 41.6386 40.6829 42.3087 40.9965C42.7792 41.2104 43.1784 41.4029 43.5063 41.574C43.8485 41.7308 44.1479 41.8805 44.4045 42.0231C44.6611 42.1656 44.8821 42.3011 45.0675 42.4294C45.267 42.5435 45.4524 42.6718 45.6235 42.8143C46.4362 43.4559 46.8425 44.2757 46.8425 45.2737C46.8425 45.8297 46.7212 46.3715 46.4789 46.899C46.2507 47.4265 45.9086 47.9042 45.4524 48.3319C44.2976 49.4439 42.7221 50 40.7262 50C39.999 50 39.3289 49.943 38.7159 49.8289C38.1171 49.7291 37.4612 49.5509 36.7484 49.2942L36.0641 46.4927C37.5611 47.6903 39.2078 48.2891 41.0042 48.2891C41.4889 48.2891 41.938 48.2321 42.3515 48.118C42.7649 47.9897 43.1214 47.8258 43.4208 47.6261C43.7202 47.4123 43.9554 47.1699 44.1265 46.899C44.2976 46.6138 44.3831 46.3074 44.3831 45.9794C44.3831 45.68 44.3118 45.3878 44.1693 45.1026C44.041 44.8174 43.8627 44.5751 43.6346 44.3755C43.5063 44.2614 43.3708 44.1545 43.2283 44.0547C43.0857 43.9549 42.9075 43.848 42.6937 43.7339C42.4798 43.6198 42.216 43.4915 41.9024 43.349C41.5886 43.1921 41.2037 43.0068 40.7475 42.7929C40.3055 42.5933 39.9277 42.4152 39.6141 42.2583C39.3004 42.1014 39.0224 41.9589 38.7801 41.8306C38.5376 41.6881 38.3238 41.5526 38.1385 41.4243C37.9674 41.2959 37.8034 41.1534 37.6466 40.9965C37.2759 40.6686 36.9836 40.2766 36.7698 39.8203C36.5701 39.3641 36.4704 38.8865 36.4704 38.3875C36.4704 37.7744 36.5987 37.2255 36.8553 36.7408C37.1262 36.2417 37.504 35.8212 37.9888 35.479C38.4877 35.1226 39.0794 34.8517 39.7638 34.6663C40.4624 34.481 41.2394 34.3883 42.0948 34.3883C42.6936 34.3883 43.2639 34.4311 43.8057 34.5166C44.3474 34.588 44.9248 34.7091 45.538 34.8802V37.4465ZM52.0622 46.9632C52.0622 47.3339 52.0766 47.6547 52.105 47.9255C52.1478 48.1964 52.2119 48.4316 52.2975 48.6313C52.3974 48.8309 52.5185 49.009 52.661 49.1659C52.8179 49.3228 53.0104 49.4725 53.2385 49.615H48.7902C49.0041 49.5009 49.1752 49.3798 49.3035 49.2515C49.4318 49.1089 49.5317 48.9307 49.6029 48.7168C49.6742 48.503 49.7241 48.2392 49.7526 47.9255C49.7811 47.6119 49.7953 47.2126 49.7953 46.7279V37.639C49.7953 37.1543 49.7811 36.755 49.7526 36.4414C49.7241 36.1277 49.6742 35.8639 49.6029 35.6501C49.5317 35.4362 49.4318 35.2651 49.3035 35.1368C49.1752 34.9943 49.0041 34.866 48.7902 34.7519H50.9502C51.1213 34.7519 51.2639 34.7519 51.3779 34.7519C51.492 34.7519 51.6275 34.7519 51.7842 34.7519C51.9411 34.7519 52.1478 34.7519 52.4044 34.7519C52.661 34.7377 53.0175 34.7305 53.4737 34.7305H54.1794C54.821 34.7305 55.37 34.7733 55.8261 34.8588C56.2966 34.9444 56.7387 35.0869 57.1521 35.2865C57.8507 35.6287 58.4068 36.1064 58.8201 36.7194C59.2336 37.3182 59.4403 37.974 59.4403 38.6869C59.4403 39.2715 59.305 39.8203 59.034 40.3336C58.7774 40.8468 58.421 41.2959 57.9647 41.6809C57.5228 42.0658 56.9953 42.3724 56.3822 42.6005C55.7834 42.8143 55.1418 42.9213 54.4574 42.9213C54.101 42.9213 53.8159 42.8999 53.602 42.8571C53.3882 42.8143 53.1315 42.736 52.8321 42.6219C53.545 42.5363 54.1153 42.4152 54.543 42.2583C54.9707 42.0872 55.37 41.8448 55.7406 41.5312C56.5248 40.8468 56.9168 40.0413 56.9168 39.1146C56.9168 38.2306 56.6246 37.5463 56.04 37.0615C55.4555 36.5625 54.6499 36.313 53.6234 36.313C53.3383 36.313 53.0817 36.3273 52.8535 36.3558C52.6396 36.37 52.376 36.4128 52.0622 36.4841V46.9632ZM62.1382 37.639C62.1382 37.1543 62.1239 36.755 62.0954 36.4414C62.0668 36.1277 62.017 35.8639 61.9457 35.6501C61.8744 35.4362 61.7746 35.2651 61.6463 35.1368C61.518 34.9943 61.3469 34.866 61.133 34.7519H65.4102C65.1963 34.866 65.0252 34.9943 64.8969 35.1368C64.7686 35.2651 64.6688 35.4362 64.5975 35.6501C64.5262 35.8639 64.4764 36.1277 64.4478 36.4414C64.4193 36.755 64.405 37.1543 64.405 37.639V46.7279C64.405 47.2126 64.4193 47.6119 64.4478 47.9255C64.4764 48.2392 64.5262 48.503 64.5975 48.7168C64.6688 48.9307 64.7686 49.1089 64.8969 49.2515C65.0252 49.3798 65.1963 49.5009 65.4102 49.615H61.133C61.3469 49.5009 61.518 49.3798 61.6463 49.2515C61.7746 49.1089 61.8744 48.9307 61.9457 48.7168C62.017 48.503 62.0668 48.2392 62.0954 47.9255C62.1239 47.6119 62.1382 47.2126 62.1382 46.7279V37.639ZM77.4442 37.2968C77.2731 36.9688 77.0379 36.7479 76.7385 36.6338C76.4534 36.5055 75.9829 36.4414 75.327 36.4414C75.1987 36.4414 75.0917 36.4414 75.0062 36.4414C74.935 36.4414 74.8494 36.4485 74.7496 36.4627C74.664 36.4627 74.5429 36.4699 74.386 36.4841C74.2293 36.4841 74.0154 36.4913 73.7444 36.5055H73.3809V46.9632C73.3809 47.3339 73.3952 47.6547 73.4237 47.9255C73.4664 48.1822 73.5306 48.4102 73.6161 48.6099C73.7017 48.8095 73.8229 48.9877 73.9797 49.1445C74.1365 49.3014 74.3362 49.4582 74.5785 49.615H70.1089C70.3085 49.5153 70.4724 49.394 70.6007 49.2515C70.729 49.1089 70.8289 48.9307 70.9001 48.7168C70.9857 48.503 71.0428 48.2392 71.0712 47.9255C71.0998 47.5976 71.114 47.1984 71.114 46.7279V36.5055C70.8859 36.477 70.5937 36.4627 70.2372 36.4627C69.8808 36.4485 69.5672 36.4414 69.2962 36.4414C68.9398 36.4414 68.6262 36.4556 68.3552 36.4841C68.0986 36.4984 67.8633 36.5411 67.6495 36.6125C67.4356 36.6694 67.2218 36.755 67.0079 36.8691C66.8084 36.9832 66.5945 37.1257 66.3663 37.2968L67.2004 34.6022C67.3287 34.645 67.4998 34.6806 67.7136 34.7091C67.9275 34.7377 68.1414 34.7519 68.3552 34.7519H76.8454C77.0878 34.7377 77.2803 34.7305 77.4228 34.7305C77.5654 34.7163 77.6652 34.7091 77.7222 34.7091C77.7935 34.6949 77.8577 34.6877 77.9147 34.6877C77.9718 34.6735 78.0573 34.645 78.1713 34.6022L77.4442 37.2968ZM85.9363 36.6552L83.6266 42.5577H88.2246L85.9363 36.6552ZM83.092 44.0119L81.8088 47.455C81.6377 47.9113 81.5522 48.2963 81.5522 48.6099C81.5522 48.8237 81.6092 49.009 81.7233 49.1659C81.8516 49.3084 82.0654 49.4582 82.3648 49.615H78.216C78.4726 49.4439 78.6935 49.2871 78.879 49.1445C79.0643 48.9877 79.2282 48.8024 79.3708 48.5885C79.5276 48.3604 79.6773 48.0895 79.8199 47.7758C79.9625 47.4622 80.1264 47.0629 80.3118 46.5782L84.2896 36.6552C84.4607 36.2133 84.5462 35.8711 84.5462 35.6287C84.5462 35.4291 84.4963 35.2651 84.3965 35.1368C84.2966 35.0085 84.1185 34.8802 83.8619 34.7519H87.4547L92.202 46.5782C92.3731 47.0202 92.5377 47.3981 92.6939 47.7117C92.8511 48.0253 93.0082 48.3033 93.1643 48.5457C93.3354 48.7738 93.514 48.9734 93.699 49.1445C93.899 49.3156 94.1267 49.4725 94.3833 49.615H89.7002C90.0423 49.4154 90.2633 49.2657 90.3631 49.1659C90.4629 49.0518 90.5128 48.9021 90.5128 48.7168C90.5128 48.6598 90.5057 48.6027 90.4915 48.5457C90.4915 48.4887 90.4771 48.4174 90.4487 48.3319C90.4201 48.2463 90.3774 48.1322 90.3204 47.9897C90.2776 47.8472 90.2134 47.6689 90.1279 47.455L88.802 44.0119H83.092ZM98.8017 47.7758C99.301 47.8472 99.8068 47.9042 100.32 47.9469C100.848 47.9897 101.354 48.0111 101.838 48.0111C102.238 48.0111 102.608 47.9897 102.951 47.9469C103.293 47.8899 103.621 47.8114 103.934 47.7117C104.263 47.5976 104.583 47.4551 104.897 47.284C105.225 47.0987 105.575 46.8776 105.945 46.621L104.747 49.615H95.5296C95.7435 49.5009 95.9146 49.3798 96.0429 49.2515C96.1712 49.1089 96.2717 48.9307 96.3423 48.7168C96.4139 48.503 96.4642 48.2392 96.492 47.9255C96.5209 47.6119 96.5348 47.2126 96.5348 46.7279V37.639C96.5348 37.1543 96.5209 36.755 96.492 36.4414C96.4642 36.1277 96.4139 35.8639 96.3423 35.6501C96.2717 35.4362 96.1712 35.2651 96.0429 35.1368C95.9146 34.9943 95.7435 34.866 95.5296 34.7519H99.8068C99.5929 34.866 99.4218 34.9943 99.2935 35.1368C99.1652 35.2651 99.0658 35.4362 98.9941 35.6501C98.9236 35.8639 98.8733 36.1277 98.8444 36.4414C98.8166 36.755 98.8017 37.1543 98.8017 37.639V47.7758Z" fill="#1A4382"/>
</svg>
