<svg width="40" height="40" viewBox="0 0 40 40" fill="none" xmlns="http://www.w3.org/2000/svg">
<g clip-path="url(#clip0_14_164)">
<path d="M36.4746 7.06055C34.5307 7.06055 32.9492 8.64203 32.9492 10.5859C32.9492 10.8016 32.9698 11.0126 33.007 11.2177L30.6026 12.5917C29.7323 11.35 28.65 10.2677 27.4083 9.39742L28.7823 6.99297C28.9874 7.03023 29.1983 7.05078 29.4141 7.05078C31.358 7.05078 32.9395 5.4693 32.9395 3.52539C32.9395 1.58148 31.358 0 29.4141 0C27.4702 0 25.8887 1.58148 25.8887 3.52539C25.8887 4.40523 26.2134 5.21016 26.7484 5.82844L25.3754 8.23117C23.7373 7.48 21.9168 7.06055 20 7.06055C16.8536 7.06055 13.9663 8.18984 11.7211 10.0638L6.70484 5.04758C6.92648 4.58656 7.05078 4.07023 7.05078 3.52539C7.05078 1.58148 5.4693 0 3.52539 0C1.58148 0 0 1.58148 0 3.52539C0 5.4693 1.58148 7.05078 3.52539 7.05078C4.07023 7.05078 4.58648 6.92641 5.04758 6.70484L10.0638 11.7211C8.18984 13.9663 7.06055 16.8536 7.06055 20C7.06055 23.5026 8.46008 26.684 10.7285 29.0161L7.15234 33.1883C6.75703 33.0345 6.32781 32.9493 5.87883 32.9493C3.93492 32.9493 2.35344 34.5308 2.35344 36.4747C2.35344 38.4186 3.935 40 5.87891 40C7.82281 40 9.4043 38.4185 9.4043 36.4746C9.4043 35.8337 9.23148 35.2327 8.93133 34.7141L12.5065 30.5431C14.6224 32.0514 17.2095 32.9395 20 32.9395C22.382 32.9395 24.6153 32.2917 26.5343 31.1642L28.8827 34.452C28.4798 35.0251 28.2422 35.7224 28.2422 36.4746C28.2422 38.4185 29.8237 40 31.7676 40C33.7115 40 35.293 38.4185 35.293 36.4746C35.293 34.5307 33.7115 32.9492 31.7676 32.9492C31.428 32.9492 31.0999 32.9984 30.7891 33.0884L28.4401 29.7998C31.1935 27.4252 32.9395 23.9127 32.9395 19.9999C32.9395 18.0831 32.52 16.2626 31.7688 14.6246L34.1716 13.2516C34.7898 13.7866 35.5948 14.1113 36.4746 14.1113C38.4185 14.1113 40 12.5298 40 10.5859C40 8.64203 38.4185 7.06055 36.4746 7.06055ZM29.4141 2.34375C30.0656 2.34375 30.5957 2.87383 30.5957 3.52539C30.5957 4.17695 30.0656 4.70703 29.4141 4.70703C28.7625 4.70703 28.2324 4.17695 28.2324 3.52539C28.2324 2.87383 28.7625 2.34375 29.4141 2.34375ZM3.52539 4.70703C2.87383 4.70703 2.34375 4.17695 2.34375 3.52539C2.34375 2.87383 2.87383 2.34375 3.52539 2.34375C4.17695 2.34375 4.70703 2.87383 4.70703 3.52539C4.70703 4.17695 4.17695 4.70703 3.52539 4.70703ZM5.87891 37.6562C5.22734 37.6562 4.69727 37.1262 4.69727 36.4746C4.69727 35.823 5.22734 35.293 5.87891 35.293C6.53047 35.293 7.06055 35.823 7.06055 36.4746C7.06055 37.1262 6.53047 37.6562 5.87891 37.6562ZM31.7676 35.293C32.4191 35.293 32.9492 35.823 32.9492 36.4746C32.9492 37.1262 32.4191 37.6562 31.7676 37.6562C31.116 37.6562 30.5859 37.1262 30.5859 36.4746C30.5859 35.823 31.116 35.293 31.7676 35.293ZM20 30.5957C14.1575 30.5957 9.4043 25.8425 9.4043 20C9.4043 14.1575 14.1575 9.4043 20 9.4043C25.8425 9.4043 30.5957 14.1575 30.5957 20C30.5957 25.8425 25.8425 30.5957 20 30.5957ZM36.4746 11.7676C35.823 11.7676 35.293 11.2375 35.293 10.5859C35.293 9.93437 35.823 9.4043 36.4746 9.4043C37.1262 9.4043 37.6562 9.93437 37.6562 10.5859C37.6562 11.2375 37.1262 11.7676 36.4746 11.7676Z" fill="#1A825F"/>
<path d="M16.7578 24.2578C16.1449 24.2578 15.5576 24.7968 15.5859 25.4297C15.6144 26.0646 16.1009 26.6016 16.7578 26.6016C17.3708 26.6016 17.9581 26.0626 17.9297 25.4297C17.9013 24.7948 17.4148 24.2578 16.7578 24.2578Z" fill="#1A825F"/>
<path d="M14.1016 19.0234C13.4886 19.0234 12.9013 19.5624 12.9297 20.1953C12.9581 20.8302 13.4446 21.3672 14.1016 21.3672C14.7145 21.3672 15.3018 20.8282 15.2734 20.1953C15.245 19.5604 14.7585 19.0234 14.1016 19.0234Z" fill="#1A825F"/>
<path d="M21.2109 18.7891C20.598 18.7891 20.0107 19.328 20.0391 19.9609C20.0675 20.5959 20.554 21.1328 21.2109 21.1328C21.8239 21.1328 22.4112 20.5938 22.3828 19.9609C22.3544 19.326 21.8679 18.7891 21.2109 18.7891Z" fill="#1A825F"/>
<path d="M24.8828 23.8672C24.2699 23.8672 23.6826 24.4062 23.7109 25.0391C23.7394 25.674 24.2259 26.2109 24.8828 26.2109C25.4958 26.2109 26.0831 25.672 26.0547 25.0391C26.0263 24.4041 25.5398 23.8672 24.8828 23.8672Z" fill="#1A825F"/>
<path d="M18.9192 13.3984C18.3062 13.3984 17.719 13.9374 17.7473 14.5703C17.7758 15.2052 18.2622 15.7422 18.9192 15.7422C19.5322 15.7422 20.1194 15.2032 20.0911 14.5703C20.0626 13.9354 19.5762 13.3984 18.9192 13.3984Z" fill="#1A825F"/>
<path d="M26.0547 15.5078C25.4417 15.5078 24.8545 16.0468 24.8828 16.6797C24.9113 17.3146 25.3977 17.8516 26.0547 17.8516C26.6677 17.8516 27.2549 17.3126 27.2266 16.6797C27.1981 16.0448 26.7117 15.5078 26.0547 15.5078Z" fill="#1A825F"/>
</g>
<defs>
<clipPath id="clip0_14_164">
<rect width="40" height="40" fill="white"/>
</clipPath>
</defs>
</svg>
