<svg width="47" height="47" viewBox="0 0 47 47" fill="none" xmlns="http://www.w3.org/2000/svg">
<g clip-path="url(#clip0_2058_2418)">
<path d="M35.9528 6.21045H32.7177C32.7019 3.23545 30.2775 0.819824 27.2988 0.819824C26.7909 0.819824 26.286 0.89116 25.7986 1.03159L7.63832 6.2631C7.05946 6.42985 6.67133 6.95624 6.66495 7.54274C6.66459 7.54786 6.6637 7.55298 6.6637 7.55811V45.4722C6.6637 46.2164 7.26709 46.8198 8.01135 46.8198H35.9528C38.1325 46.8198 39.9059 45.0465 39.9059 42.8667V10.1636C39.9059 7.98379 38.1325 6.21045 35.9528 6.21045ZM26.545 3.6216C26.79 3.55098 27.0436 3.51514 27.2989 3.51514C28.7914 3.51514 30.0074 4.72156 30.023 6.21045H17.5581L26.545 3.6216ZM37.2106 42.8667C37.2106 43.5603 36.6464 44.1245 35.9528 44.1245H9.35901V8.90576H31.3707H35.9528C36.6464 8.90576 37.2106 9.46998 37.2106 10.1636V42.8667Z" fill="white"/>
<path d="M23.2848 13.4878C17.5877 13.4878 12.9528 18.1227 12.9528 23.8198C12.9528 29.5169 17.5877 34.1519 23.2848 34.1519C28.9819 34.1519 33.6168 29.5169 33.6168 23.8198C33.6168 18.1227 28.9819 13.4878 23.2848 13.4878ZM30.8 22.4722H27.7425C27.6431 20.5248 27.3265 18.5984 26.7766 17.0316C28.8525 18.1038 30.3755 20.0993 30.8 22.4722ZM23.2848 31.4288C23.0867 31.2799 22.6271 30.7162 22.2044 29.3335C21.8452 28.1586 21.6122 26.7131 21.5259 25.1675H25.0437C24.9574 26.7131 24.7244 28.1586 24.3652 29.3335C23.9424 30.7163 23.4829 31.2799 23.2848 31.4288ZM21.5259 22.4722C21.6122 20.9266 21.8452 19.4811 22.2044 18.3061C22.6271 16.9233 23.0868 16.3597 23.2848 16.2109C23.4829 16.3597 23.9424 16.9234 24.3652 18.3061C24.7244 19.4811 24.9574 20.9266 25.0437 22.4722H21.5259ZM19.793 17.0316C19.2431 18.5984 18.9265 20.5247 18.8271 22.4722H15.7695C16.1941 20.0993 17.7171 18.1038 19.793 17.0316ZM15.7695 25.1675H18.8271C18.9265 27.1148 19.2431 29.0413 19.793 30.6081C17.7171 29.5359 16.1941 27.5403 15.7695 25.1675ZM26.7766 30.6081C27.3265 29.0413 27.6431 27.1149 27.7425 25.1675H30.8C30.3755 27.5403 28.8525 29.5359 26.7766 30.6081Z" fill="white"/>
<path d="M30.4723 36.8472H16.0973C15.353 36.8472 14.7496 37.4506 14.7496 38.1948C14.7496 38.9391 15.353 39.5425 16.0973 39.5425H30.4723C31.2166 39.5425 31.8199 38.9391 31.8199 38.1948C31.8199 37.4506 31.2166 36.8472 30.4723 36.8472Z" fill="white"/>
</g>
<defs>
<clipPath id="clip0_2058_2418">
<rect width="46" height="46" fill="white" transform="translate(0.28479 0.819824)"/>
</clipPath>
</defs>
</svg>
