<svg width="28" height="28" viewBox="0 0 28 28" fill="none" xmlns="http://www.w3.org/2000/svg">
<path d="M27.9999 13.9725C27.9997 13.5685 27.7618 13.2009 27.3935 13.0355L25.2641 12.0796L27.3937 11.1236C27.762 10.9583 27.9999 10.5904 27.9999 10.1867C27.9999 9.78271 27.762 9.41507 27.3935 9.24951L18.5803 5.29343C18.573 5.29001 18.5657 5.28659 18.5585 5.2836L14.4208 3.42637C14.1534 3.30589 13.8468 3.3061 13.5793 3.42615L13.5796 3.42594L0.606261 9.24951C0.237976 9.41507 1.43573e-07 9.78271 1.43573e-07 10.1867C1.43573e-07 10.5904 0.237976 10.9583 0.606475 11.1238L2.73587 12.0796L0.606475 13.0355C0.238189 13.2009 1.43573e-07 13.5685 1.43573e-07 13.9725C-0.000213479 14.3765 0.237976 14.7441 0.606475 14.9097L2.79696 15.893L0.606261 16.8765C0.237976 17.0418 1.43573e-07 17.4097 1.43573e-07 17.8134C1.43573e-07 18.2174 0.237976 18.585 0.606475 18.7506L13.5793 24.5739C13.7131 24.6342 13.8566 24.6641 14.0002 24.6641C14.1435 24.6641 14.2869 24.634 14.4204 24.5742L27.3937 18.7504C27.762 18.585 27.9999 18.2172 27.9999 17.8134C27.9999 17.4095 27.762 17.0418 27.3935 16.8763L25.203 15.893L27.3937 14.9097C27.762 14.7443 27.9999 14.3765 27.9999 13.9725ZM9.79246 6.92423L12.0227 7.92547L9.62605 9.00149L7.42809 7.98572L9.79246 6.92423ZM14.0256 8.82483L16.4511 9.91366L14.0254 11.0348L11.5999 9.91366L14.0256 8.82483ZM20.5975 7.99725L18.425 9.00128L16.0285 7.92547L18.2331 6.93576L20.5975 7.99725ZM12.0699 11.9384L9.28981 13.2233L6.75859 12.0871L9.61622 10.8043L12.0699 11.9384ZM14.0254 12.842L16.7519 14.1022L14 15.3375L11.2737 14.1139L14.0254 12.842ZM18.7358 13.2118L15.9807 11.9384L18.4348 10.8043L21.2668 12.0757L18.7358 13.2118ZM23.2699 11.1764L20.4087 9.89187L22.5812 8.88763L25.4749 10.1867L23.2699 11.1764ZM14 5.03559L16.23 6.03662L14.0256 7.02634L11.7956 6.02509L14 5.03559ZM5.44417 8.87631L7.64214 9.89208L4.75567 11.1879L2.52502 10.1867L5.44417 8.87631ZM25.4749 17.8134L14 22.9645L2.52502 17.8134L4.8001 16.7923L13.58 20.7334C13.7135 20.7932 13.8566 20.8234 14 20.8232C14.1433 20.8232 14.2867 20.7932 14.4204 20.7332L23.1998 16.7923L25.4749 17.8134ZM14 19.1236L2.52502 13.9725L4.73879 12.9787L13.5793 16.9472C13.7131 17.0072 13.8566 17.0373 14.0002 17.0373C14.1435 17.0373 14.2869 17.0072 14.4204 16.9472L23.2612 12.9787L25.4749 13.9725L14 19.1236Z" fill="black"/>
</svg>
