<svg width="28" height="28" viewBox="0 0 28 28" fill="none" xmlns="http://www.w3.org/2000/svg">
<path d="M27.1797 1.23047H0.820312C0.367281 1.23047 0 1.59775 0 2.05078V21.793C0 22.246 0.367281 22.6133 0.820312 22.6133H11.1173C11.035 22.8261 10.9308 23.059 10.8001 23.2953C10.2438 24.3013 9.46848 24.917 8.49592 25.1289H6.20703C5.754 25.1289 5.38672 25.4962 5.38672 25.9492C5.38672 26.4023 5.754 26.7695 6.20703 26.7695H21.793C22.246 26.7695 22.6133 26.4023 22.6133 25.9492C22.6133 25.4962 22.246 25.1289 21.793 25.1289H19.5041C18.5315 24.917 17.7561 24.3013 17.1998 23.2953C17.0692 23.059 16.965 22.8261 16.8827 22.6133H27.1797C27.6327 22.6133 28 22.246 28 21.793V2.05078C28 1.59775 27.6327 1.23047 27.1797 1.23047ZM1.64062 2.87109H26.3594V17.6914H1.64062V2.87109ZM15.735 24.0361C15.9547 24.4418 16.2055 24.8066 16.4845 25.1289H11.5155C11.7945 24.8066 12.0454 24.4418 12.265 24.0361C12.5506 23.5086 12.7346 23 12.849 22.6133H15.151C15.2654 23 15.4494 23.5086 15.735 24.0361ZM1.64062 20.9727V19.332H26.3594V20.9727H1.64062Z" fill="black"/>
<path d="M14 4.51172C10.0666 4.51172 6.41595 6.28748 3.98416 9.38361C3.84974 9.55478 3.78882 9.77233 3.81485 9.9884C3.84088 10.2045 3.95168 10.4013 4.12291 10.5357L10.9284 15.8758C11.2848 16.1555 11.8002 16.0933 12.0799 15.7372C12.5462 15.1436 13.246 14.8031 14.0001 14.8031C14.754 14.8031 15.4539 15.1436 15.9203 15.7372C16.0821 15.9433 16.3228 16.0508 16.5659 16.0508C16.7431 16.0508 16.9216 15.9936 17.0718 15.8758L23.8772 10.5357C24.0484 10.4013 24.1592 10.2045 24.1852 9.9884C24.2113 9.77238 24.1503 9.55478 24.0159 9.38361C21.5841 6.28748 17.9335 4.51172 14 4.51172ZM16.6396 14.1294C15.9093 13.5078 14.9822 13.1624 14 13.1624C13.0178 13.1624 12.0907 13.5077 11.3604 14.1294L5.80466 9.76987C7.9052 7.46107 10.8485 6.15234 14 6.15234C17.1515 6.15234 20.0948 7.46107 22.1954 9.76987L16.6396 14.1294Z" fill="black"/>
</svg>
