<svg width="121" height="57" viewBox="0 0 121 57" fill="none" xmlns="http://www.w3.org/2000/svg">
<path d="M24.7852 -2.28882e-05L28.6852 2.74901V7.06878H24.7852V-2.28882e-05Z" fill="#0BA5C4"/>
<path d="M119.239 -2.28882e-05L115.339 2.74901V7.06878H119.239V-2.28882e-05Z" fill="#0BA5C4"/>
<path d="M5.48442 30.6883C6.1913 30.8346 6.7763 30.9321 7.23943 30.9808C7.72693 31.0296 8.27538 31.054 8.88476 31.054C10.9566 31.054 12.541 30.6396 13.6379 29.8108C14.7592 28.9821 15.3198 27.7999 15.3198 26.2642C15.3198 24.5824 14.7226 23.2783 13.5282 22.352C12.8945 21.8645 12.1876 21.5233 11.4076 21.3283C10.652 21.1089 9.65257 20.9992 8.40944 20.9992C7.89756 20.9992 7.42224 21.0114 6.98349 21.0358C6.56911 21.0601 6.06942 21.1089 5.48442 21.182V30.6883ZM5.48442 18.5861C5.82567 18.6348 6.0938 18.6592 6.2888 18.6592C6.50818 18.6592 6.72755 18.6592 6.94693 18.6592C8.77507 18.6592 10.2498 18.2936 11.371 17.5623C12.4923 16.8067 13.0529 15.8073 13.0529 14.5642C13.0529 13.4185 12.602 12.5045 11.7001 11.822C10.7982 11.1151 9.61601 10.7616 8.1535 10.7616C7.7635 10.7616 7.37349 10.786 6.98349 10.8348C6.59349 10.8591 6.0938 10.9201 5.48442 11.0176V18.5861ZM8.70194 8.31193C10.0182 8.31193 11.0785 8.38505 11.8829 8.5313C12.6873 8.65318 13.4064 8.88474 14.0401 9.22599C15.0395 9.73787 15.8073 10.4082 16.3436 11.2369C16.9042 12.0657 17.1845 12.9798 17.1845 13.9792C17.1845 14.8079 16.9895 15.5879 16.5995 16.3192C16.2095 17.0261 15.6611 17.6111 14.9542 18.0742C14.7348 18.2204 14.5154 18.3545 14.296 18.4764C14.0767 18.5983 13.7476 18.7567 13.3089 18.9517C14.0157 19.1467 14.5642 19.3173 14.9542 19.4636C15.3686 19.6098 15.7829 19.8048 16.1973 20.0486C17.2942 20.658 18.1351 21.4623 18.7201 22.4617C19.3295 23.4611 19.6342 24.558 19.6342 25.7524C19.6342 27.2149 19.1955 28.5677 18.318 29.8108C17.4648 31.0296 16.2826 31.9924 14.7714 32.6993C14.357 32.8943 13.9304 33.0649 13.4917 33.2112C13.0529 33.3331 12.5776 33.4306 12.0657 33.5037C11.5538 33.5768 10.981 33.6377 10.3473 33.6865C9.71351 33.7352 8.99444 33.7596 8.19006 33.7596H5.48442H0C0.365628 33.5646 0.658131 33.3574 0.877508 33.1381C1.09688 32.8943 1.26751 32.5896 1.38939 32.224C1.51126 31.8584 1.59657 31.4074 1.64533 30.8712C1.69408 30.3349 1.71845 29.6524 1.71845 28.8236V13.2845C1.71845 12.4557 1.69408 11.7732 1.64533 11.2369C1.59657 10.7007 1.51126 10.2498 1.38939 9.88412C1.26751 9.5185 1.09688 9.22599 0.877508 9.00662C0.658131 8.76286 0.365628 8.54349 0 8.34849H5.48442C5.58192 8.34849 5.8013 8.34849 6.14255 8.34849C6.50818 8.34849 6.95912 8.3363 7.49537 8.31193H8.70194ZM24.8559 13.2845C24.8559 12.4557 24.8315 11.7732 24.7827 11.2369C24.734 10.7007 24.6487 10.2498 24.5268 9.88412C24.4049 9.5185 24.2343 9.22599 24.0149 9.00662C23.7955 8.76286 23.503 8.54349 23.1374 8.34849H30.45C30.0843 8.54349 29.7918 8.76286 29.5725 9.00662C29.3531 9.22599 29.1825 9.5185 29.0606 9.88412C28.9387 10.2498 28.8534 10.7007 28.8046 11.2369C28.7559 11.7732 28.7315 12.4557 28.7315 13.2845V28.8236C28.7315 29.6524 28.7559 30.3349 28.8046 30.8712C28.8534 31.4074 28.9387 31.8584 29.0606 32.224C29.1825 32.5896 29.3531 32.8943 29.5725 33.1381C29.7918 33.3574 30.0843 33.5646 30.45 33.7596H23.1374C23.503 33.5646 23.7955 33.3574 24.0149 33.1381C24.2343 32.8943 24.4049 32.5896 24.5268 32.224C24.6487 31.8584 24.734 31.4074 24.7827 30.8712C24.8315 30.3349 24.8559 29.6524 24.8559 28.8236V13.2845ZM39.836 28.8236C39.836 29.6524 39.8604 30.3349 39.9091 30.8712C39.9579 31.4074 40.0432 31.8584 40.1651 32.224C40.2869 32.5896 40.4576 32.8943 40.6769 33.1381C40.8963 33.3574 41.1888 33.5646 41.5545 33.7596H34.2419C34.6075 33.5646 34.9 33.3574 35.1194 33.1381C35.3388 32.8943 35.5094 32.5896 35.6313 32.224C35.7532 31.8584 35.8385 31.4074 35.8872 30.8712C35.936 30.3349 35.9603 29.6524 35.9603 28.8236V13.2845C35.9603 12.4557 35.936 11.7732 35.8872 11.2369C35.8385 10.7007 35.7532 10.2498 35.6313 9.88412C35.5094 9.5185 35.3388 9.22599 35.1194 9.00662C34.9 8.76286 34.6075 8.54349 34.2419 8.34849H39.836C40.0066 8.34849 40.2382 8.34849 40.5307 8.34849C40.8476 8.34849 41.2132 8.3363 41.6276 8.31193C41.9688 8.28755 42.2735 8.27536 42.5416 8.27536C42.8098 8.27536 43.0535 8.27536 43.2729 8.27536C44.5404 8.27536 45.6251 8.39724 46.527 8.64099C47.4532 8.88474 48.2698 9.26256 48.9767 9.77444C49.7567 10.3594 50.3783 11.1029 50.8414 12.0048C51.3045 12.8823 51.5361 13.7842 51.5361 14.7104C51.5361 15.4417 51.3777 16.1607 51.0608 16.8676C50.7683 17.5745 50.3417 18.2204 49.7811 18.8054C49.2204 19.3904 48.5501 19.9023 47.7701 20.3411C47.0145 20.7798 46.1857 21.1089 45.2839 21.3283C46.722 23.2783 48.0017 24.948 49.1229 26.3374C50.2442 27.7024 51.2558 28.8724 52.1577 29.8474C53.0839 30.8224 53.937 31.6268 54.7171 32.2605C55.4971 32.8699 56.2771 33.3696 57.0571 33.7596C56.4721 33.8084 55.9846 33.8449 55.5946 33.8693C55.2289 33.8937 54.9242 33.9181 54.6805 33.9424C54.4367 33.9668 54.2295 33.979 54.0589 33.979C53.8883 33.979 53.7055 33.979 53.5105 33.979C52.9498 33.979 52.4502 33.9181 52.0114 33.7962C51.5727 33.6987 51.1217 33.5159 50.6586 33.2477C50.2198 32.9552 49.7567 32.5652 49.2692 32.0777C48.7817 31.5659 48.2089 30.9199 47.5507 30.1399C46.4051 28.7993 45.2473 27.3124 44.0773 25.6792C42.9316 24.0217 41.8348 22.3033 40.7866 20.5239C45.0767 19.7926 47.2217 17.9523 47.2217 15.0029C47.2217 13.7354 46.7829 12.7116 45.9054 11.9316C45.0523 11.1273 43.931 10.7251 42.5416 10.7251C42.1273 10.7251 41.7129 10.7494 41.2985 10.7982C40.9085 10.8226 40.421 10.8957 39.836 11.0176V28.8236ZM75.6241 31.0905C73.796 33.2843 71.2488 34.3812 67.9825 34.3812C66.13 34.3812 64.4847 34.0156 63.0465 33.2843C61.6328 32.5287 60.5846 31.4805 59.9021 30.1399C59.7071 29.7986 59.5487 29.4574 59.4268 29.1161C59.3293 28.7749 59.244 28.3971 59.1709 27.9827C59.0978 27.5439 59.049 27.0564 59.0246 26.5202C59.0003 25.9596 58.9881 25.2892 58.9881 24.5092V13.2845C58.9881 12.4557 58.9637 11.7732 58.9149 11.2369C58.8662 10.7007 58.7809 10.2498 58.659 9.88412C58.5371 9.5185 58.3665 9.22599 58.1471 9.00662C57.9277 8.76286 57.6353 8.54349 57.2696 8.34849H64.5822C64.2409 8.54349 63.9484 8.76286 63.7047 9.00662C63.4853 9.22599 63.3147 9.5185 63.1928 9.88412C63.0709 10.2498 62.9856 10.7007 62.9369 11.2369C62.8881 11.7732 62.8637 12.4557 62.8637 13.2845V24.5092C62.8637 25.8011 62.949 26.8005 63.1197 27.5074C63.3147 28.1899 63.6803 28.8358 64.2165 29.4452C64.7772 30.1277 65.4841 30.6518 66.3372 31.0174C67.1903 31.383 68.1166 31.5659 69.116 31.5659C70.2616 31.5659 71.3219 31.3343 72.2969 30.8712C73.2963 30.3837 74.0885 29.7255 74.6735 28.8968C74.9904 28.4824 75.1976 28.0558 75.2951 27.6171C75.4169 27.1539 75.4779 26.5567 75.4779 25.8255V13.2845C75.4779 12.4557 75.4535 11.7732 75.4048 11.2369C75.356 10.7007 75.2585 10.2498 75.1123 9.88412C74.9904 9.5185 74.8197 9.22599 74.6004 9.00662C74.381 8.76286 74.1007 8.54349 73.7594 8.34849H81.072C80.7307 8.54349 80.4382 8.76286 80.1945 9.00662C79.9751 9.22599 79.8045 9.5185 79.6826 9.88412C79.5607 10.2498 79.4754 10.7007 79.4267 11.2369C79.3779 11.7732 79.3535 12.4557 79.3535 13.2845V28.8236C79.3535 29.6524 79.3779 30.3349 79.4267 30.8712C79.4754 31.4074 79.5607 31.8584 79.6826 32.224C79.8045 32.5896 79.9751 32.8943 80.1945 33.1381C80.4382 33.3574 80.7307 33.5646 81.072 33.7596H75.6241V31.0905ZM89.4432 29.2258C89.4432 29.8596 89.4675 30.408 89.5163 30.8712C89.5894 31.3099 89.6991 31.7121 89.8454 32.0777C90.016 32.419 90.2232 32.7237 90.4669 32.9918C90.735 33.2599 91.0641 33.5159 91.4541 33.7596H84.5803C84.9947 33.4915 85.3359 33.2234 85.6041 32.9552C85.8722 32.6871 86.0794 32.3824 86.2256 32.0412C86.3719 31.6999 86.4694 31.3099 86.5181 30.8712C86.5913 30.408 86.6278 29.8596 86.6278 29.2258V12.8823C86.6278 12.2485 86.5913 11.7123 86.5181 11.2735C86.4694 10.8104 86.3597 10.4082 86.1891 10.0669C86.0428 9.70131 85.8356 9.39662 85.5675 9.15287C85.3238 8.88474 85.0069 8.61661 84.6169 8.34849H90.2475C90.2719 8.44599 90.2963 8.5313 90.3207 8.60443C90.3694 8.65318 90.4182 8.7263 90.4669 8.8238C90.54 8.9213 90.6254 9.04318 90.7229 9.18943C90.8204 9.33568 90.9666 9.53068 91.1616 9.77444L105.457 27.9827V12.8823C105.457 12.2485 105.421 11.7123 105.347 11.2735C105.299 10.8104 105.189 10.4082 105.018 10.0669C104.872 9.72569 104.665 9.421 104.397 9.15287C104.129 8.88474 103.8 8.61661 103.41 8.34849H110.32C109.906 8.61661 109.564 8.88474 109.296 9.15287C109.028 9.421 108.821 9.72569 108.675 10.0669C108.528 10.4082 108.419 10.8104 108.346 11.2735C108.297 11.7123 108.273 12.2485 108.273 12.8823V35.0028C107.2 34.6615 106.237 34.174 105.384 33.5402C104.555 32.8821 103.751 32.0168 102.971 30.9443L89.4432 13.7963V29.2258ZM115.406 13.2845C115.406 12.4557 115.382 11.7732 115.333 11.2369C115.284 10.7007 115.199 10.2498 115.077 9.88412C114.955 9.5185 114.784 9.22599 114.565 9.00662C114.346 8.76286 114.053 8.54349 113.687 8.34849H121C120.634 8.54349 120.342 8.76286 120.123 9.00662C119.903 9.22599 119.733 9.5185 119.611 9.88412C119.489 10.2498 119.403 10.7007 119.355 11.2369C119.306 11.7732 119.282 12.4557 119.282 13.2845V28.8236C119.282 29.6524 119.306 30.3349 119.355 30.8712C119.403 31.4074 119.489 31.8584 119.611 32.224C119.733 32.5896 119.903 32.8943 120.123 33.1381C120.342 33.3574 120.634 33.5646 121 33.7596H113.687C114.053 33.5646 114.346 33.3574 114.565 33.1381C114.784 32.8943 114.955 32.5896 115.077 32.224C115.199 31.8584 115.284 31.4074 115.333 30.8712C115.382 30.3349 115.406 29.6524 115.406 28.8236V13.2845Z" fill="#1A4382"/>
<path d="M5.04312 48.3847V53.2597C5.04312 53.8122 5.05933 54.2673 5.09187 54.6247C5.12429 54.9822 5.18121 55.2829 5.2625 55.5266C5.34367 55.7704 5.4575 55.9735 5.60375 56.136C5.75 56.2823 5.94501 56.4203 6.18876 56.5504H1.31372C1.55747 56.4203 1.75247 56.2823 1.89873 56.136C2.04498 55.9735 2.15869 55.7704 2.23998 55.5266C2.32115 55.2829 2.37806 54.9822 2.4106 54.6247C2.44302 54.2673 2.45935 53.8122 2.45935 53.2597V42.9003C2.45935 42.3478 2.44302 41.8927 2.4106 41.5353C2.37806 41.1778 2.32115 40.8771 2.23998 40.6334C2.15869 40.3896 2.04498 40.1946 1.89873 40.0484C1.75247 39.8859 1.55747 39.7397 1.31372 39.6096H6.18876C5.94501 39.7397 5.75 39.8859 5.60375 40.0484C5.4575 40.1946 5.34367 40.3896 5.2625 40.6334C5.18121 40.8771 5.12429 41.1778 5.09187 41.5353C5.05933 41.8927 5.04312 42.3478 5.04312 42.9003V46.4103H14.3057V42.9003C14.3057 42.3478 14.2894 41.8927 14.2569 41.5353C14.2244 41.1778 14.1594 40.8771 14.0619 40.6334C13.9806 40.3896 13.8669 40.1946 13.7207 40.0484C13.5744 39.8859 13.3875 39.7397 13.1601 39.6096H18.0351C17.8076 39.7397 17.6126 39.8859 17.4501 40.0484C17.3038 40.1946 17.19 40.3896 17.1088 40.6334C17.0275 40.8771 16.9706 41.1859 16.9382 41.5596C16.9057 41.9171 16.8895 42.364 16.8895 42.9003V53.2597C16.8895 53.796 16.9057 54.251 16.9382 54.6247C16.9706 54.9822 17.0275 55.2829 17.1088 55.5266C17.19 55.7704 17.3038 55.9735 17.4501 56.136C17.6126 56.2823 17.8076 56.4203 18.0351 56.5504H13.1601C13.3875 56.4203 13.5744 56.2823 13.7207 56.136C13.8669 55.9735 13.9806 55.7704 14.0619 55.5266C14.1594 55.2829 14.2244 54.9822 14.2569 54.6247C14.2894 54.251 14.3057 53.796 14.3057 53.2597V48.3847H5.04312ZM29.6624 41.0234C28.7849 41.0234 27.9236 41.194 27.0787 41.5353C26.2499 41.8765 25.5511 42.3397 24.9824 42.9247C24.4298 43.4935 23.9911 44.2084 23.6661 45.0697C23.3573 45.9146 23.203 46.8003 23.203 47.7266C23.203 48.7178 23.3817 49.6928 23.7393 50.6516C24.0967 51.6104 24.6086 52.4554 25.2749 53.1866C26.4449 54.4703 27.948 55.1123 29.7843 55.1123C30.743 55.1123 31.6205 54.9498 32.4168 54.6247C33.213 54.2997 33.8955 53.8447 34.4643 53.2597C35.033 52.6585 35.4718 51.9435 35.7806 51.1147C36.1055 50.286 36.2681 49.3679 36.2681 48.3603C36.2681 47.3853 36.1137 46.4672 35.805 45.6059C35.5125 44.7284 35.0818 43.9484 34.5131 43.2659C33.2618 41.7709 31.6449 41.0234 29.6624 41.0234ZM30.0281 39.1709C31.2468 39.1709 32.4412 39.3984 33.6112 39.8534C34.7812 40.2921 35.7724 40.9097 36.585 41.7059C37.3974 42.4859 38.0312 43.4365 38.4862 44.5578C38.9574 45.6628 39.1931 46.8003 39.1931 47.9703C39.1931 49.2216 38.9412 50.3997 38.4375 51.5047C37.95 52.5934 37.2755 53.5441 36.4144 54.3566C35.5693 55.1692 34.5699 55.811 33.4162 56.2823C32.2624 56.7372 31.0193 56.9648 29.6868 56.9648C28.3705 56.9648 27.1436 56.7372 26.0062 56.2823C24.8686 55.8273 23.8773 55.2097 23.0324 54.4297C22.1873 53.6335 21.5211 52.6991 21.0336 51.6266C20.5461 50.5541 20.3024 49.4003 20.3024 48.1653C20.3024 46.8816 20.5461 45.6953 21.0336 44.6065C21.5373 43.5015 22.2198 42.5509 23.0811 41.7546C23.9586 40.9421 24.9904 40.3083 26.1768 39.8534C27.363 39.3984 28.6467 39.1709 30.0281 39.1709ZM51.9034 42.6809C51.3509 42.1447 50.7253 41.7303 50.0265 41.4378C49.3277 41.1453 48.5884 40.999 47.8084 40.999C46.7847 40.999 45.9639 41.2184 45.3465 41.6571C44.729 42.0959 44.4203 42.6809 44.4203 43.4122C44.4203 43.7372 44.469 44.0297 44.5665 44.2897C44.6802 44.5334 44.8752 44.7772 45.1515 45.0209C45.444 45.2647 45.834 45.5246 46.3215 45.8009C46.8252 46.0609 47.459 46.3697 48.2228 46.7272C48.759 46.9709 49.214 47.1903 49.5878 47.3853C49.9778 47.5641 50.3191 47.7347 50.6116 47.8972C50.9041 48.0597 51.1558 48.2141 51.3672 48.3603C51.5946 48.4904 51.8059 48.6366 52.0009 48.7991C52.9272 49.5303 53.3903 50.4648 53.3903 51.6022C53.3903 52.236 53.2521 52.8535 52.9759 53.4547C52.7159 54.056 52.3259 54.6004 51.8059 55.0879C50.4897 56.3554 48.694 56.9891 46.419 56.9891C45.5903 56.9891 44.8265 56.9242 44.1278 56.7941C43.4453 56.6804 42.6977 56.4773 41.8852 56.1848L41.1052 52.9916C42.8115 54.3566 44.6884 55.0391 46.7359 55.0391C47.2884 55.0391 47.8002 54.9742 48.2715 54.8441C48.7427 54.6979 49.149 54.511 49.4903 54.2835C49.8316 54.0397 50.0997 53.7634 50.2947 53.4547C50.4897 53.1297 50.5872 52.7804 50.5872 52.4066C50.5872 52.0654 50.5059 51.7323 50.3434 51.4072C50.1972 51.0822 49.994 50.806 49.7341 50.5785C49.5878 50.4484 49.4334 50.3265 49.2709 50.2128C49.1083 50.0991 48.9053 49.9773 48.6615 49.8472C48.4178 49.7172 48.1171 49.5709 47.7597 49.4085C47.4021 49.2297 46.9633 49.0185 46.4434 48.7747C45.9396 48.5472 45.509 48.3441 45.1515 48.1653C44.7939 47.9865 44.4771 47.8241 44.2009 47.6778C43.9246 47.5154 43.6808 47.3609 43.4696 47.2147C43.2746 47.0684 43.0877 46.906 42.909 46.7272C42.4865 46.3534 42.1534 45.9066 41.9096 45.3866C41.6821 44.8665 41.5684 44.3222 41.5684 43.7534C41.5684 43.0547 41.7146 42.429 42.0071 41.8765C42.3158 41.3077 42.7464 40.8284 43.299 40.4384C43.8677 40.0322 44.5421 39.7233 45.3221 39.5121C46.1184 39.3009 47.004 39.1953 47.979 39.1953C48.6615 39.1953 49.3115 39.244 49.9291 39.3415C50.5465 39.4228 51.2046 39.5609 51.9034 39.7559V42.6809ZM59.3397 53.5279C59.3397 53.9504 59.356 54.316 59.3884 54.6247C59.4372 54.9335 59.5103 55.2016 59.6078 55.4291C59.7217 55.6567 59.8597 55.8597 60.0222 56.0385C60.201 56.2173 60.4204 56.3879 60.6803 56.5504H55.6103C55.854 56.4203 56.0491 56.2823 56.1953 56.136C56.3416 55.9735 56.4554 55.7704 56.5366 55.5266C56.6178 55.2829 56.6748 54.9822 56.7072 54.6247C56.7397 54.2673 56.7559 53.8122 56.7559 53.2597V42.9003C56.7559 42.3478 56.7397 41.8927 56.7072 41.5353C56.6748 41.1778 56.6178 40.8771 56.5366 40.6334C56.4554 40.3896 56.3416 40.1946 56.1953 40.0484C56.0491 39.8859 55.854 39.7397 55.6103 39.6096H58.0722C58.2672 39.6096 58.4298 39.6096 58.5597 39.6096C58.6897 39.6096 58.8442 39.6096 59.0228 39.6096C59.2016 39.6096 59.4372 39.6096 59.7297 39.6096C60.0222 39.5934 60.4285 39.5853 60.9485 39.5853H61.7528C62.4841 39.5853 63.1098 39.634 63.6297 39.7315C64.166 39.829 64.6698 39.9915 65.141 40.219C65.9373 40.609 66.5711 41.1534 67.0423 41.8522C67.5136 42.5347 67.7491 43.2821 67.7491 44.0947C67.7491 44.761 67.5948 45.3866 67.286 45.9716C66.9935 46.5566 66.5873 47.0684 66.0673 47.5072C65.5635 47.9459 64.9623 48.2954 64.2635 48.5553C63.581 48.7991 62.8497 48.921 62.0697 48.921C61.6635 48.921 61.3385 48.8966 61.0947 48.8478C60.851 48.7991 60.5585 48.7097 60.2172 48.5797C61.0298 48.4822 61.6797 48.3441 62.1672 48.1653C62.6547 47.9703 63.1098 47.694 63.5322 47.3366C64.4261 46.5566 64.8729 45.6385 64.8729 44.5822C64.8729 43.5746 64.5398 42.7946 63.8735 42.2422C63.2073 41.6734 62.2891 41.389 61.1191 41.389C60.7942 41.389 60.5017 41.4052 60.2416 41.4378C59.9978 41.454 59.6973 41.5027 59.3397 41.584V53.5279ZM70.8241 42.9003C70.8241 42.3478 70.8079 41.8927 70.7753 41.5353C70.7428 41.1778 70.686 40.8771 70.6047 40.6334C70.5234 40.3896 70.4097 40.1946 70.2634 40.0484C70.1172 39.8859 69.9222 39.7397 69.6784 39.6096H74.5535C74.3097 39.7397 74.1147 39.8859 73.9685 40.0484C73.8222 40.1946 73.7085 40.3896 73.6272 40.6334C73.5459 40.8771 73.4891 41.1778 73.4566 41.5353C73.424 41.8927 73.4078 42.3478 73.4078 42.9003V53.2597C73.4078 53.8122 73.424 54.2673 73.4566 54.6247C73.4891 54.9822 73.5459 55.2829 73.6272 55.5266C73.7085 55.7704 73.8222 55.9735 73.9685 56.136C74.1147 56.2823 74.3097 56.4203 74.5535 56.5504H69.6784C69.9222 56.4203 70.1172 56.2823 70.2634 56.136C70.4097 55.9735 70.5234 55.7704 70.6047 55.5266C70.686 55.2829 70.7428 54.9822 70.7753 54.6247C70.8079 54.2673 70.8241 53.8122 70.8241 53.2597V42.9003ZM88.2696 42.5103C88.0746 42.1365 87.8065 41.8847 87.4652 41.7546C87.1403 41.6084 86.6041 41.5353 85.8565 41.5353C85.7102 41.5353 85.5884 41.5353 85.4909 41.5353C85.4097 41.5353 85.3122 41.5434 85.1984 41.5596C85.1009 41.5596 84.9628 41.5678 84.784 41.584C84.6053 41.584 84.3616 41.5922 84.0527 41.6084H83.6384V53.5279C83.6384 53.9504 83.6547 54.316 83.6871 54.6247C83.7358 54.9173 83.809 55.1772 83.9065 55.4048C84.004 55.6323 84.1422 55.8353 84.3209 56.0141C84.4996 56.1929 84.7272 56.3716 85.0034 56.5504H79.9089C80.1365 56.4367 80.3233 56.2985 80.4696 56.136C80.6158 55.9735 80.7297 55.7704 80.8108 55.5266C80.9083 55.2829 80.9734 54.9822 81.0058 54.6247C81.0384 54.251 81.0546 53.796 81.0546 53.2597V41.6084C80.7946 41.5759 80.4615 41.5596 80.0552 41.5596C79.649 41.5434 79.2915 41.5353 78.9827 41.5353C78.5765 41.5353 78.219 41.5515 77.9102 41.584C77.6177 41.6002 77.3495 41.649 77.1058 41.7303C76.862 41.7952 76.6183 41.8927 76.3745 42.0228C76.1471 42.1528 75.9034 42.3153 75.6433 42.5103L76.5939 39.439C76.7402 39.4878 76.9352 39.5283 77.1789 39.5609C77.4227 39.5934 77.6664 39.6096 77.9102 39.6096H87.5871C87.8634 39.5934 88.0828 39.5853 88.2453 39.5853C88.4078 39.569 88.5216 39.5609 88.5865 39.5609C88.6678 39.5447 88.7409 39.5365 88.8059 39.5365C88.871 39.5203 88.9685 39.4878 89.0984 39.439L88.2696 42.5103ZM97.9488 41.779L95.3163 48.5066H100.557L97.9488 41.779ZM94.7069 50.1641L93.2444 54.0885C93.0494 54.6085 92.9519 55.0473 92.9519 55.4048C92.9519 55.6485 93.0168 55.8597 93.1469 56.0385C93.2931 56.201 93.5369 56.3716 93.8781 56.5504H89.1493C89.4418 56.3554 89.6936 56.1766 89.905 56.0141C90.1162 55.8353 90.303 55.6241 90.4656 55.3804C90.6443 55.1204 90.8149 54.8116 90.9775 54.4541C91.1399 54.0967 91.3268 53.6416 91.5381 53.0891L96.0719 41.779C96.2669 41.2753 96.3644 40.8853 96.3644 40.609C96.3644 40.3815 96.3075 40.1946 96.1938 40.0484C96.0799 39.9021 95.8769 39.7559 95.5844 39.6096H99.6794L105.09 53.0891C105.285 53.5928 105.473 54.0235 105.651 54.381C105.83 54.7385 106.009 55.0553 106.187 55.3316C106.382 55.5916 106.586 55.8191 106.797 56.0141C107.025 56.2091 107.284 56.3879 107.577 56.5504H102.239C102.629 56.3228 102.881 56.1522 102.994 56.0385C103.108 55.9085 103.165 55.7378 103.165 55.5266C103.165 55.4617 103.157 55.3966 103.141 55.3316C103.141 55.2667 103.124 55.1854 103.092 55.0879C103.059 54.9904 103.011 54.8603 102.946 54.6979C102.897 54.5354 102.824 54.3322 102.726 54.0885L101.215 50.1641H94.7069ZM112.613 54.4541C113.182 54.5354 113.758 54.6004 114.343 54.6491C114.945 54.6979 115.522 54.7222 116.074 54.7222C116.53 54.7222 116.951 54.6979 117.341 54.6491C117.731 54.5842 118.105 54.4947 118.463 54.381C118.837 54.251 119.202 54.0885 119.559 53.8935C119.934 53.6823 120.332 53.4304 120.754 53.1379L119.389 56.5504H108.883C109.127 56.4203 109.322 56.2823 109.468 56.136C109.614 55.9735 109.729 55.7704 109.809 55.5266C109.891 55.2829 109.948 54.9822 109.98 54.6247C110.013 54.2673 110.029 53.8122 110.029 53.2597V42.9003C110.029 42.3478 110.013 41.8927 109.98 41.5353C109.948 41.1778 109.891 40.8771 109.809 40.6334C109.729 40.3896 109.614 40.1946 109.468 40.0484C109.322 39.8859 109.127 39.7397 108.883 39.6096H113.758C113.514 39.7397 113.319 39.8859 113.173 40.0484C113.027 40.1946 112.914 40.3896 112.832 40.6334C112.751 40.8771 112.694 41.1778 112.661 41.5353C112.63 41.8927 112.613 42.3478 112.613 42.9003V54.4541Z" fill="#1A4382"/>
</svg>
