<svg width="60" height="60" viewBox="0 0 60 60" fill="none" xmlns="http://www.w3.org/2000/svg">
<path d="M30.0001 0C17.6635 0 7.6272 10.0363 7.6272 22.3729V56.6085C7.6272 58.4787 9.14853 60 11.0187 60H20.8476V59.9939C20.8567 59.9939 20.8659 60 20.875 60C21.4374 60 21.892 59.5444 21.892 58.983V53.8332L22.1157 53.9828C22.1461 54.0032 22.1787 54.0255 22.2092 54.0458L23.1824 54.6997C23.5679 54.9611 23.9442 55.2387 24.3194 55.5163C25.9475 56.7204 27.6316 57.9661 30.0001 57.9661C32.3685 57.9661 34.0526 56.7204 35.6807 55.5163C36.056 55.2387 36.4322 54.9611 36.8166 54.6997L37.7908 54.0458C37.804 54.0367 37.8193 54.0275 37.8325 54.0173C37.9434 53.9441 38.0532 53.8699 38.163 53.7967V58.9832C38.163 59.5354 38.6043 59.9788 39.1535 59.994V60H48.9822C50.8513 60 52.3727 58.4787 52.3727 56.6085V22.3729C52.3729 10.0363 42.3366 0 30.0001 0ZM41.274 48.8837C40.3668 49.745 39.3438 50.5109 38.2983 51.2389C37.7533 51.6183 37.204 51.9915 36.6518 52.3607L35.6756 53.0166C35.2677 53.2931 34.8691 53.587 34.4715 53.8809C33.0456 54.9355 31.6982 55.9321 29.9999 55.9321C28.3017 55.9321 26.9542 54.9355 25.5284 53.8809C25.1308 53.587 24.7321 53.2931 24.3243 53.0166L23.3602 52.3677C22.81 51.9996 22.2629 51.6284 21.7198 51.2511C20.6683 50.5189 19.6381 49.7501 18.7259 48.8837C14.115 44.5068 13.7287 37.6881 13.7287 31.6403C13.7287 27.9203 15.4585 24.3437 18.3568 22.0738C20.9693 20.0266 23.9439 18.4088 25.4225 17.6551C30.8644 29.577 42.7983 32.0695 46.2681 32.5485C46.2224 38.3613 45.656 44.7244 41.274 48.8837Z" fill="#FC4E7F"/>
</svg>
