<svg width="28" height="28" viewBox="0 0 28 28" fill="none" xmlns="http://www.w3.org/2000/svg">
<path d="M22.6619 5.34516C21.5264 4.19845 20.1755 3.2874 18.6869 2.66434C17.1983 2.04128 15.6012 1.71849 13.9874 1.71451C12.3737 1.71054 10.775 2.02547 9.28333 2.64119C7.79165 3.25692 6.43632 4.16131 5.29522 5.30242C4.15411 6.44353 3.24972 7.79885 2.63399 9.29054C2.01826 10.7822 1.70334 12.3809 1.70731 13.9946C1.71128 15.6084 2.03407 17.2055 2.65714 18.6941C3.2802 20.1827 4.19125 21.5336 5.33796 22.6691C6.47344 23.8158 7.82429 24.7268 9.31293 25.3499C10.8016 25.973 12.3986 26.2957 14.0124 26.2997C15.6262 26.3037 17.2248 25.9888 18.7165 25.373C20.2082 24.7573 21.5635 23.8529 22.7046 22.7118C23.8457 21.5707 24.7501 20.2154 25.3658 18.7237C25.9816 17.232 26.2965 15.6334 26.2925 14.0196C26.2885 12.4058 25.9658 10.8088 25.3427 9.32013C24.7196 7.8315 23.8086 6.48064 22.6619 5.34516ZM3.49991 14.0071C3.49952 13.0778 3.62274 12.1526 3.86632 11.2558C4.26773 12.1199 4.8507 12.8663 5.24718 13.7528C5.7596 14.8925 7.13554 14.5764 7.74312 15.575C8.28234 16.4615 7.70648 17.5826 8.11007 18.5101C8.4032 19.1833 9.09445 19.3304 9.57132 19.8226C10.0586 20.3191 10.0482 20.9995 10.1226 21.647C10.2065 22.4077 10.3426 23.1618 10.53 23.9039C10.53 23.9094 10.53 23.9154 10.5344 23.9209C6.4421 22.4837 3.49991 18.5828 3.49991 14.0071ZM13.9999 24.5071C13.4135 24.5069 12.8282 24.4579 12.2499 24.3606C12.2559 24.2124 12.2587 24.074 12.2734 23.9777C12.4063 23.1082 12.8416 22.2578 13.429 21.607C14.0092 20.965 14.8044 20.5308 15.2944 19.8024C15.7745 19.0914 15.9184 18.1344 15.7204 17.3037C15.4289 16.0765 13.7615 15.6669 12.8624 15.0013C12.3456 14.6185 11.8857 14.0268 11.207 13.9787C10.8942 13.9568 10.6323 14.0241 10.3222 13.9442C10.0378 13.8704 9.81468 13.7173 9.51171 13.7572C8.94569 13.8316 8.58859 14.4364 7.98046 14.3544C7.40351 14.2773 6.80905 13.6019 6.6778 13.0523C6.50937 12.3457 7.06827 12.1166 7.6671 12.0537C7.91702 12.0274 8.19757 11.999 8.43765 12.0909C8.75374 12.2079 8.90304 12.5174 9.18687 12.6738C9.71898 12.9659 9.82671 12.4994 9.74523 12.0269C9.62327 11.3192 9.48109 11.031 10.1122 10.5438C10.5497 10.208 10.9237 9.96516 10.8537 9.36196C10.8122 9.00759 10.618 8.84735 10.7991 8.49462C10.9363 8.2261 11.3131 7.98383 11.5587 7.8236C12.1925 7.41016 14.2739 7.44079 13.4235 6.2836C13.1736 5.94399 12.7126 5.33696 12.2751 5.25384C11.7282 5.15048 11.4854 5.76079 11.1042 6.02985C10.7105 6.30821 9.94374 6.6243 9.54945 6.19391C9.01898 5.61477 9.90109 5.42501 10.0963 5.02032C10.1866 4.83165 10.0963 4.56969 9.94429 4.32305C10.1415 4.23993 10.342 4.16282 10.5459 4.09173C10.6736 4.18606 10.8251 4.24288 10.9834 4.25579C11.3492 4.27985 11.6943 4.08188 12.0137 4.33126C12.368 4.60469 12.6234 4.95032 13.0937 5.03563C13.5487 5.11821 14.0305 4.85298 14.1432 4.38704C14.2116 4.10376 14.1432 3.80462 14.0776 3.51204C16.1229 3.52381 18.1197 4.13634 19.8198 5.27352C19.7104 5.23196 19.5797 5.23688 19.4184 5.3118C19.0864 5.46602 18.6161 5.85868 18.5773 6.24805C18.533 6.68993 19.1848 6.75227 19.4944 6.75227C19.9592 6.75227 20.4301 6.54446 20.2802 6.00743C20.2151 5.77446 20.1266 5.53219 19.9838 5.38563C20.3269 5.62372 20.6556 5.88193 20.9682 6.15891C20.9633 6.16384 20.9584 6.16821 20.9534 6.17368C20.6384 6.5018 20.2726 6.76157 20.0571 7.16079C19.9051 7.44188 19.7339 7.57532 19.426 7.64805C19.2565 7.68798 19.0629 7.70274 18.9207 7.81649C18.5248 8.12821 18.7501 8.87743 19.1252 9.10219C19.5994 9.38602 20.3027 9.25258 20.6603 8.84735C20.9398 8.53016 21.1044 7.97946 21.6069 7.98001C21.8282 7.97955 22.0408 8.06618 22.1987 8.22118C22.4065 8.43665 22.3655 8.6379 22.4098 8.90696C22.488 9.38493 22.9096 9.12571 23.1661 8.88454C23.353 9.21727 23.5217 9.55994 23.6714 9.91102C23.3892 10.3174 23.165 10.7603 22.4863 10.2867C22.08 10.0029 21.8301 9.5911 21.3198 9.46313C20.8741 9.35376 20.4175 9.46751 19.9773 9.54352C19.4769 9.63048 18.8835 9.66876 18.504 10.0477C18.137 10.4131 17.9429 10.902 17.5524 11.2689C16.7972 11.9798 16.4784 12.7559 16.9673 13.761C17.4376 14.7274 18.4214 15.2518 19.4829 15.1829C20.5258 15.1134 21.6091 14.5086 21.5791 16.024C21.5681 16.5605 21.6802 16.9318 21.8448 17.43C21.9974 17.8894 21.987 18.3345 22.022 18.8087C22.0553 19.3639 22.1421 19.9146 22.2812 20.4531C21.301 21.7152 20.0453 22.7365 18.6101 23.4391C17.1748 24.1418 15.5979 24.507 13.9999 24.5071Z" fill="black"/>
</svg>
