<svg width="28" height="28" viewBox="0 0 28 28" fill="none" xmlns="http://www.w3.org/2000/svg">
<g clip-path="url(#clip0_2058_415)">
<path d="M27.29 21.8756H4.54922C3.88968 21.8749 3.25736 21.6125 2.79098 21.1461C2.32461 20.6798 2.06227 20.0475 2.06152 19.3879V17.8009C2.06152 17.6127 2.13628 17.4322 2.26935 17.2991C2.40242 17.1661 2.58289 17.0913 2.77108 17.0913C2.95926 17.0913 3.13974 17.1661 3.27281 17.2991C3.40588 17.4322 3.48063 17.6127 3.48063 17.8009V19.3879C3.48088 19.6712 3.59355 19.9429 3.79389 20.1432C3.99424 20.3436 4.26589 20.4562 4.54922 20.4565H27.29C27.4782 20.4565 27.6587 20.5313 27.7917 20.6643C27.9248 20.7974 27.9996 20.9779 27.9996 21.166C27.9996 21.3542 27.9248 21.5347 27.7917 21.6678C27.6587 21.8008 27.4782 21.8756 27.29 21.8756Z" fill="black"/>
<path d="M27.29 18.8457C27.1018 18.8457 26.9213 18.771 26.7882 18.6379C26.6552 18.5048 26.5804 18.3244 26.5804 18.1362V16.3585C26.5798 16.0754 26.467 15.8041 26.2667 15.6041C26.0664 15.4041 25.7949 15.2916 25.5118 15.2913H8.59319C8.5 15.2914 8.40771 15.2731 8.32159 15.2374C8.23548 15.2018 8.15722 15.1496 8.0913 15.0837L3.2422 10.2332C3.04191 10.0328 2.77023 9.92021 2.48693 9.92017C2.20363 9.92013 1.93191 10.0326 1.73156 10.2329C1.5312 10.4332 1.41862 10.7049 1.41858 10.9882C1.41853 11.2715 1.53103 11.5432 1.73132 11.7436L7.41439 17.4266H24.2285C24.4167 17.4266 24.5971 17.5014 24.7302 17.6344C24.8633 17.7675 24.938 17.948 24.938 18.1362C24.938 18.3244 24.8633 18.5048 24.7302 18.6379C24.5971 18.771 24.4167 18.8457 24.2285 18.8457H7.12016C6.9321 18.8457 6.75176 18.771 6.61874 18.6381L0.72801 12.7473C0.26156 12.2809 -0.000488286 11.6483 -0.000488281 10.9886C-0.000488276 10.3289 0.26156 9.69629 0.72801 9.22984C1.19446 8.76339 1.8271 8.50134 2.48676 8.50134C3.14642 8.50134 3.77906 8.76339 4.24551 9.22984L8.88884 13.8722H25.5118C26.1711 13.873 26.8032 14.1351 27.2696 14.6012C27.7359 15.0672 27.9984 15.6992 27.9995 16.3585V18.1362C27.9995 18.3244 27.9248 18.5048 27.7917 18.6379C27.6586 18.771 27.4782 18.8457 27.29 18.8457Z" fill="black"/>
<path d="M7.12012 28C6.61369 28 6.11864 27.8498 5.69756 27.5685C5.27648 27.2871 4.94828 26.8872 4.75448 26.4193C4.56068 25.9515 4.50997 25.4366 4.60877 24.9399C4.70757 24.4432 4.95144 23.987 5.30954 23.6289C5.66764 23.2708 6.12388 23.0269 6.62058 22.9281C7.11728 22.8293 7.63212 22.88 8.1 23.0738C8.56788 23.2676 8.96778 23.5958 9.24914 24.0169C9.53049 24.438 9.68067 24.933 9.68067 25.4395C9.67992 26.1183 9.4099 26.7692 8.92987 27.2492C8.44984 27.7292 7.79899 27.9993 7.12012 28ZM7.12012 24.2985C6.89434 24.2985 6.67364 24.3654 6.48592 24.4909C6.2982 24.6163 6.1519 24.7946 6.06552 25.0032C5.97914 25.2118 5.95657 25.4414 6.00065 25.6628C6.04473 25.8842 6.15349 26.0876 6.31317 26.2472C6.47285 26.4068 6.67628 26.5155 6.89773 26.5595C7.11917 26.6035 7.3487 26.5808 7.55726 26.4943C7.76582 26.4079 7.94405 26.2615 8.06942 26.0737C8.19479 25.886 8.26165 25.6652 8.26156 25.4395C8.26118 25.1369 8.14079 24.8468 7.92679 24.6329C7.7128 24.419 7.42269 24.2987 7.12012 24.2985Z" fill="black"/>
<path d="M22.7092 28C22.2028 28 21.7077 27.8498 21.2867 27.5685C20.8656 27.2871 20.5374 26.8872 20.3436 26.4193C20.1498 25.9515 20.0991 25.4366 20.1979 24.9399C20.2967 24.4432 20.5406 23.987 20.8986 23.6289C21.2567 23.2708 21.713 23.0269 22.2097 22.9281C22.7064 22.8293 23.2212 22.88 23.6891 23.0738C24.157 23.2676 24.5569 23.5958 24.8383 24.0169C25.1196 24.438 25.2698 24.933 25.2698 25.4395C25.269 26.1183 24.999 26.7692 24.519 27.2492C24.039 27.7292 23.3881 27.9993 22.7092 28ZM22.7092 24.2985C22.4835 24.2985 22.2628 24.3654 22.075 24.4909C21.8873 24.6163 21.741 24.7946 21.6546 25.0032C21.5683 25.2118 21.5457 25.4414 21.5898 25.6628C21.6338 25.8842 21.7426 26.0876 21.9023 26.2472C22.062 26.4068 22.2654 26.5155 22.4868 26.5595C22.7083 26.6035 22.9378 26.5808 23.1464 26.4943C23.3549 26.4079 23.5332 26.2615 23.6585 26.0737C23.7839 25.886 23.8508 25.6652 23.8507 25.4395C23.8503 25.1369 23.7299 24.8468 23.5159 24.6329C23.3019 24.419 23.0118 24.2987 22.7092 24.2985Z" fill="black"/>
<path d="M22.7092 12.4532C22.521 12.4532 22.3405 12.3784 22.2075 12.2453C22.0744 12.1123 21.9996 11.9318 21.9996 11.7436V1.41911H18.862V3.61731C18.862 3.8055 18.7872 3.98598 18.6542 4.11904C18.5211 4.25211 18.3406 4.32687 18.1524 4.32687C17.9642 4.32687 17.7838 4.25211 17.6507 4.11904C17.5176 3.98598 17.4429 3.8055 17.4429 3.61731V0.709555C17.4429 0.52137 17.5176 0.340891 17.6507 0.207824C17.7838 0.0747565 17.9642 0 18.1524 0H22.7092C22.8974 0 23.0779 0.0747565 23.2109 0.207824C23.344 0.340891 23.4187 0.52137 23.4187 0.709555V11.7436C23.4187 11.9318 23.344 12.1123 23.2109 12.2453C23.0779 12.3784 22.8974 12.4532 22.7092 12.4532Z" fill="black"/>
<path d="M18.7006 9.10166H17.6041C17.171 9.10116 16.7559 8.92891 16.4497 8.6227C16.1435 8.31648 15.9712 7.90131 15.9707 7.46826V4.54111C15.9712 4.10806 16.1435 3.69289 16.4497 3.38668C16.7559 3.08047 17.171 2.90822 17.6041 2.90771H18.7006C19.1341 2.90759 19.5498 3.07956 19.8566 3.38584C20.1633 3.69212 20.3359 4.10765 20.3364 4.54111V7.46826C20.3359 7.90172 20.1633 8.31725 19.8566 8.62353C19.5498 8.92981 19.1341 9.10179 18.7006 9.10166ZM17.6041 4.32683C17.5473 4.32695 17.4929 4.34957 17.4527 4.38973C17.4126 4.42989 17.3899 4.48432 17.3898 4.54111V7.46826C17.3898 7.5251 17.4124 7.5796 17.4526 7.61979C17.4928 7.65997 17.5473 7.68255 17.6041 7.68255H18.7006C18.7574 7.68255 18.8119 7.65997 18.8521 7.61979C18.8923 7.5796 18.9149 7.5251 18.9149 7.46826V4.54111C18.9148 4.48432 18.8921 4.42989 18.852 4.38973C18.8118 4.34957 18.7574 4.32695 18.7006 4.32683H17.6041Z" fill="black"/>
<path d="M8.59339 15.2914C8.4531 15.2914 8.31597 15.2497 8.19933 15.1718C8.08268 15.0939 7.99176 14.9831 7.93805 14.8535C7.88434 14.7239 7.87025 14.5813 7.89756 14.4437C7.92487 14.3061 7.99236 14.1797 8.09149 14.0804C9.23719 12.9347 9.15488 11.8311 7.8247 10.5014C6.49452 9.17171 5.3914 9.0894 4.2457 10.2346C4.11188 10.3639 3.93265 10.4354 3.7466 10.4338C3.56056 10.4322 3.38259 10.3575 3.25104 10.226C3.11948 10.0944 3.04486 9.91646 3.04324 9.73042C3.04162 9.54437 3.11314 9.36514 3.24239 9.23131C4.03 8.44371 4.88241 8.03548 5.77693 8.01845C6.79821 7.99763 7.82707 8.49622 8.82849 9.49763C9.82991 10.4991 10.3275 11.5246 10.3081 12.5478C10.2911 13.4423 9.88241 14.2952 9.09575 15.0823C9.02989 15.1485 8.95161 15.201 8.86541 15.2369C8.7792 15.2728 8.68676 15.2913 8.59339 15.2914Z" fill="black"/>
<path d="M7.1202 24.2985C6.93201 24.2985 6.75154 24.2238 6.61847 24.0907C6.4854 23.9577 6.41064 23.7772 6.41064 23.589V21.1661C6.41064 20.9779 6.4854 20.7974 6.61847 20.6644C6.75154 20.5313 6.93201 20.4565 7.1202 20.4565C7.30839 20.4565 7.48886 20.5313 7.62193 20.6644C7.755 20.7974 7.82976 20.9779 7.82976 21.1661V23.589C7.82976 23.7772 7.755 23.9577 7.62193 24.0907C7.48886 24.2238 7.30839 24.2985 7.1202 24.2985Z" fill="black"/>
<path d="M22.7091 24.2985C22.5209 24.2985 22.3404 24.2238 22.2073 24.0907C22.0743 23.9577 21.9995 23.7772 21.9995 23.589V21.1661C21.9995 20.9779 22.0743 20.7974 22.2073 20.6644C22.3404 20.5313 22.5209 20.4565 22.7091 20.4565C22.8973 20.4565 23.0777 20.5313 23.2108 20.6644C23.3439 20.7974 23.4186 20.9779 23.4186 21.1661V23.589C23.4186 23.7772 23.3439 23.9577 23.2108 24.0907C23.0777 24.2238 22.8973 24.2985 22.7091 24.2985Z" fill="black"/>
<path d="M16.6803 12.4531C16.4921 12.4531 16.3116 12.3784 16.1785 12.2453C16.0455 12.1122 15.9707 11.9317 15.9707 11.7436C15.9707 11.5554 16.0455 11.3749 16.1785 11.2418C16.3116 11.1088 16.4921 11.034 16.6803 11.034C16.8824 11.0338 17.0762 10.9533 17.2192 10.8104C17.3621 10.6674 17.4425 10.4736 17.4428 10.2715V8.39352C17.4428 8.20533 17.5176 8.02485 17.6506 7.89178C17.7837 7.75872 17.9642 7.68396 18.1523 7.68396C18.3405 7.68396 18.521 7.75872 18.6541 7.89178C18.7871 8.02485 18.8619 8.20533 18.8619 8.39352V10.2715C18.8613 10.8499 18.6312 11.4044 18.2222 11.8134C17.8132 12.2224 17.2587 12.4525 16.6803 12.4531Z" fill="black"/>
</g>
<defs>
<clipPath id="clip0_2058_415">
<rect width="28" height="28" fill="white"/>
</clipPath>
</defs>
</svg>
