<svg width="40" height="40" viewBox="0 0 40 40" fill="none" xmlns="http://www.w3.org/2000/svg">
<g clip-path="url(#clip0_14_190)">
<path d="M36.4844 28.2812C34.9566 28.2812 33.6532 29.2609 33.1695 30.625H32.8906C32.8906 26.3489 31.0933 22.2296 28.1322 19.5689C28.8991 18.6297 29.5116 17.5498 29.9249 16.3633C31.6031 16.0985 32.8906 14.642 32.8906 12.8906C32.8906 11.1392 31.6031 9.68273 29.9249 9.41797C29.2027 7.34477 27.8725 5.59773 26.1716 4.35789C27.3702 3.79719 28.2031 2.58031 28.2031 1.17188C28.2031 0.524687 27.6784 0 27.0312 0C26.3841 0 25.8594 0.524687 25.8594 1.17188C25.8594 1.81805 25.3337 2.34375 24.6875 2.34375H20C15.505 2.34375 11.5403 5.2118 10.0751 9.41797C8.39687 9.68273 7.10938 11.1392 7.10938 12.8906C7.10938 14.642 8.39687 16.0985 10.0751 16.3633C10.4884 17.5498 11.1009 18.6297 11.8677 19.5689C8.90672 22.2296 7.10938 26.3489 7.10938 30.625H6.83047C6.3468 29.2609 5.04344 28.2812 3.51562 28.2812C1.57711 28.2812 0 29.8584 0 31.7969V36.4844C0 38.4229 1.57711 40 3.51562 40H36.4844C38.4229 40 40 38.4229 40 36.4844V31.7969C40 29.8584 38.4229 28.2812 36.4844 28.2812ZM10.9565 14.0625H10.625C9.97883 14.0625 9.45312 13.5368 9.45312 12.8906C9.45312 12.2445 9.97883 11.7188 10.625 11.7188H10.9565C11.4905 11.7188 11.957 11.3577 12.0909 10.8407C13.0292 7.21781 16.2816 4.6875 20 4.6875C23.7184 4.6875 26.9708 7.21781 27.9091 10.8407C28.043 11.3577 28.5095 11.7188 29.0435 11.7188H29.375C30.0212 11.7188 30.5469 12.2445 30.5469 12.8906C30.5469 13.5368 30.0212 14.0625 29.375 14.0625H29.0435C28.5095 14.0625 28.043 14.4236 27.9091 14.9405C26.9707 18.5634 23.7183 21.0938 20 21.0938C16.2816 21.0938 13.0293 18.5634 12.0909 14.9405C11.957 14.4236 11.4905 14.0625 10.9565 14.0625ZM13.5476 21.212C15.3465 22.6174 17.5973 23.4375 20 23.4375C22.4027 23.4375 24.6534 22.6174 26.4524 21.212C28.9964 23.4268 30.5469 26.9487 30.5469 30.625C30.5469 32.9297 29.9427 35.1629 28.7992 37.0835C28.4598 37.6543 27.7369 37.8142 27.1931 37.492C26.638 37.1609 26.4549 36.4403 26.7854 35.8852C28.2922 33.3513 28.5427 30.3082 27.7973 27.707C27.619 27.0848 26.9702 26.7251 26.3479 26.9034C25.7257 27.0816 25.3659 27.7305 25.5442 28.3527C25.664 28.7708 25.7487 29.2004 25.8004 29.6372C23.9377 30.293 21.9905 30.625 20 30.625C18.0095 30.625 16.0623 30.293 14.1997 29.6372C14.2512 29.2004 14.336 28.7707 14.4559 28.3527C14.6341 27.7306 14.2744 27.0816 13.6522 26.9034C13.03 26.725 12.3811 27.0848 12.2028 27.707C11.4491 30.3368 11.7255 33.3809 13.215 35.8855C13.5452 36.4403 13.3622 37.1609 12.8103 37.49C12.2521 37.8202 11.5302 37.6381 11.2006 37.0831C10.0573 35.1629 9.45312 32.9297 9.45312 30.625C9.45312 26.9487 11.0036 23.4269 13.5476 21.212ZM15.2291 34.6872C14.7656 33.9078 14.4454 33.0403 14.2776 32.1272C16.1283 32.6858 18.0458 32.9688 20 32.9688C21.9542 32.9688 23.8717 32.6858 25.7224 32.1272C25.5546 33.0403 25.2345 33.9077 24.7711 34.6868C24.2166 35.6182 24.1445 36.7052 24.4802 37.6562H15.5201C15.8555 36.7055 15.7834 35.6184 15.2291 34.6872ZM2.34375 36.4844V31.7969C2.34375 31.1507 2.86945 30.625 3.51562 30.625C4.1618 30.625 4.6875 31.1507 4.6875 31.7969C4.6875 32.4441 5.21219 32.9688 5.85938 32.9688H7.29039C7.54461 34.6166 8.06641 36.2016 8.83727 37.6562H3.51562C2.86945 37.6562 2.34375 37.1305 2.34375 36.4844ZM37.6562 36.4844C37.6562 37.1305 37.1305 37.6562 36.4844 37.6562H31.1627C31.9336 36.2012 32.4554 34.6164 32.7096 32.9688H34.1406C34.7878 32.9688 35.3125 32.4441 35.3125 31.7969C35.3125 31.1507 35.8382 30.625 36.4844 30.625C37.1305 30.625 37.6562 31.1507 37.6562 31.7969V36.4844Z" fill="#B26FD6"/>
<path d="M16.4844 11.7188C17.1316 11.7188 17.6562 11.1941 17.6562 10.5469C17.6562 9.89967 17.1316 9.375 16.4844 9.375C15.8372 9.375 15.3125 9.89967 15.3125 10.5469C15.3125 11.1941 15.8372 11.7188 16.4844 11.7188Z" fill="#B26FD6"/>
<path d="M23.5156 11.7188C24.1628 11.7188 24.6875 11.1941 24.6875 10.5469C24.6875 9.89967 24.1628 9.375 23.5156 9.375C22.8684 9.375 22.3438 9.89967 22.3438 10.5469C22.3438 11.1941 22.8684 11.7188 23.5156 11.7188Z" fill="#B26FD6"/>
<path d="M20 18.75C21.9385 18.75 23.5156 17.1729 23.5156 15.2344C23.5156 14.5872 22.9909 14.0625 22.3438 14.0625C21.6966 14.0625 21.1719 14.5872 21.1719 15.2344C21.1719 15.8805 20.6462 16.4062 20 16.4062C19.3538 16.4062 18.8281 15.8805 18.8281 15.2344C18.8281 14.5872 18.3034 14.0625 17.6562 14.0625C17.0091 14.0625 16.4844 14.5872 16.4844 15.2344C16.4844 17.1729 18.0615 18.75 20 18.75Z" fill="#B26FD6"/>
</g>
<defs>
<clipPath id="clip0_14_190">
<rect width="40" height="40" fill="white"/>
</clipPath>
</defs>
</svg>
