<svg width="48" height="48" viewBox="0 0 48 48" fill="none" xmlns="http://www.w3.org/2000/svg">
<path d="M43.1175 9.09481H23.4393L22.8546 4.40426C22.5992 2.36079 20.8536 0.819824 18.7942 0.819824H4.74339C2.48705 0.819824 0.651367 2.65551 0.651367 4.91185V35.011C0.651367 37.2673 2.48705 39.103 4.74339 39.103H16.245L16.8222 43.7936C17.0772 45.8329 18.8228 47.378 20.8827 47.378H43.1175C45.3738 47.378 47.2095 45.5423 47.2095 43.286V13.1868C47.2095 10.9305 45.3738 9.09481 43.1175 9.09481ZM4.74339 36.375C3.99128 36.375 3.37938 35.7631 3.37938 35.011V4.91185C3.37938 4.15974 3.99128 3.54784 4.74339 3.54784H18.7942C19.4807 3.54784 20.0626 4.06144 20.1476 4.74217C20.3453 6.32769 23.8948 34.8022 24.0909 36.375H4.74339ZM19.4496 42.8086L18.9936 39.103H22.6531L19.4496 42.8086ZM44.4815 43.286C44.4815 44.0381 43.8696 44.65 43.1175 44.65H21.4638L26.6565 38.6435C26.9223 38.3437 27.0414 37.9457 26.9865 37.5501L23.7794 11.8228H43.1175C43.8696 11.8228 44.4815 12.4347 44.4815 13.1868V43.286Z" fill="white"/>
</svg>
