<svg width="48" height="48" viewBox="0 0 48 48" fill="none" xmlns="http://www.w3.org/2000/svg">
<path d="M47.1335 6.35961C47.1488 4.87366 46.5784 3.47673 45.5277 2.4259C44.4907 1.3888 43.1166 0.819824 41.6523 0.819824C41.6329 0.819824 41.6134 0.819915 41.5939 0.820097C40.1079 0.835374 38.723 1.43436 37.6942 2.50647L29.545 10.9983L8.22104 3.94149L1.9236 10.2389L19.7439 21.2114L12.4115 28.8522L6.65643 27.9074L0.575684 33.988L10.4924 37.4614L13.9657 47.378L20.0465 41.2972L19.1016 35.5422L26.7425 28.2098L37.7149 46.0302L44.0124 39.7327L36.9556 18.4088L45.4474 10.2596C46.5194 9.23057 47.1182 7.84556 47.1335 6.35961ZM43.5566 8.28932L33.8218 17.6313L40.891 38.9923L38.228 41.6553L27.2933 23.8964L16.1742 34.5669L17.1248 40.3571L15.1067 42.3752L12.6352 35.3185L5.5785 32.8469L7.5966 30.8288L13.3868 31.7795L24.0573 20.6604L6.29843 9.72589L8.96143 7.06289L30.3224 14.132L39.6644 4.39726C40.1809 3.85902 40.8762 3.55839 41.6222 3.55066C41.6319 3.55048 41.6417 3.55048 41.6513 3.55048C42.3864 3.55048 43.0763 3.8361 43.597 4.35679C44.1246 4.8843 44.4107 5.58558 44.4031 6.33151C44.3954 7.07744 44.0947 7.77272 43.5566 8.28932Z" fill="white"/>
</svg>
