<svg width="48" height="48" viewBox="0 0 48 48" fill="none" xmlns="http://www.w3.org/2000/svg">
<g clip-path="url(#clip0_3_275)">
<path d="M36.304 10.1882C36.0487 10.1882 35.7935 10.0912 35.5983 9.89676C35.2067 9.50702 35.2054 8.87366 35.5951 8.48219L36.744 7.32824C37.1337 6.93677 37.7671 6.93532 38.1586 7.32506C38.5502 7.7148 38.5516 8.34816 38.1618 8.73963L37.0129 9.89358C36.8174 10.09 36.5607 10.1882 36.304 10.1882Z" fill="white"/>
<path d="M30.9839 7.97473C30.4315 7.97473 29.9836 7.52688 29.9836 6.97446V5.34256C29.9836 4.79013 30.4315 4.34229 30.9839 4.34229C31.5363 4.34229 31.9842 4.79013 31.9842 5.34256V6.97446C31.9842 7.52688 31.5363 7.97473 30.9839 7.97473Z" fill="white"/>
<path d="M40.1323 15.5313H38.5076C37.9552 15.5313 37.5073 15.0835 37.5073 14.531C37.5073 13.9786 37.9552 13.5308 38.5076 13.5308H40.1323C40.6847 13.5308 41.1326 13.9786 41.1326 14.531C41.1326 15.0835 40.6847 15.5313 40.1323 15.5313Z" fill="white"/>
<path d="M20.4751 22.8399L16.8818 13.3639C16.879 13.3564 16.876 13.3489 16.8729 13.3413C16.6854 12.8811 16.2436 12.5835 15.747 12.583H15.7457C15.2497 12.583 14.8078 12.8796 14.6196 13.339C14.6158 13.3481 14.6123 13.3572 14.6088 13.3664L11.0483 22.8428C10.854 23.3599 11.1157 23.9367 11.6328 24.1311C11.7487 24.1746 11.8676 24.1953 11.9845 24.1953C12.3892 24.1953 12.7703 23.9477 12.921 23.5465L13.5641 21.835H17.9544L18.6045 23.5494C18.8003 24.0659 19.3776 24.3258 19.8945 24.13C20.4111 23.934 20.671 23.3565 20.4751 22.8399ZM14.3159 19.8343L15.7492 16.0193L17.1958 19.8343H14.3159Z" fill="white"/>
<path d="M45.963 37.1805C46.9775 35.2535 47.5118 33.0911 47.5118 30.8968C47.5118 23.4793 41.5017 17.4447 34.1143 17.4447C32.8809 17.4447 31.6858 17.613 30.5508 17.9278C30.1397 10.0951 23.6639 3.84961 15.7627 3.84961C7.59697 3.84961 0.953613 10.5202 0.953613 18.7194C0.953613 21.1617 1.55223 23.5683 2.68881 25.7094L1.26952 29.7411C1.15694 30.0611 1.21414 30.4163 1.42138 30.6847C1.62862 30.9531 1.95698 31.098 2.29598 31.0701L6.96453 30.6817C9.52395 32.5853 12.5573 33.5892 15.7627 33.5892C17.5145 33.5892 19.2161 33.2885 20.836 32.6939C21.7136 39.2649 27.3338 44.3489 34.1144 44.3489C37.0015 44.3489 39.7341 43.4488 42.043 41.7415L46.196 42.087C46.5341 42.1159 46.8632 41.9701 47.0706 41.7017C47.2778 41.4332 47.335 41.078 47.2224 40.758L45.963 37.1805ZM7.88323 28.8661C7.68463 28.7102 7.43502 28.6352 7.18259 28.656L3.66945 28.9484L4.72464 25.9512C4.82112 25.6771 4.79366 25.3746 4.64935 25.1223C3.54032 23.1837 2.95416 20.9696 2.95416 18.7194C2.95416 11.6233 8.70009 5.85016 15.7626 5.85016C22.8024 5.85016 28.534 11.5862 28.5707 18.651C24.0294 20.7318 20.8394 25.2868 20.7204 30.5894C19.1514 31.2526 17.4855 31.5886 15.7626 31.5886C12.8763 31.5886 10.1517 30.6472 7.88323 28.8661ZM43.9275 37.4233L44.8224 39.9652L41.8258 39.7158C41.5741 39.6952 41.3238 39.77 41.1251 39.9259C39.1068 41.5106 36.6825 42.3483 34.1143 42.3483C27.8301 42.3483 22.7175 37.2112 22.7175 30.8968C22.7175 24.5824 27.8301 19.4452 34.1143 19.4452C40.3986 19.4452 45.5112 24.5824 45.5112 30.8968C45.5112 32.8992 44.9896 34.8694 44.0028 36.5945C43.8585 36.8468 43.831 37.1492 43.9275 37.4233Z" fill="white"/>
<path d="M38.6275 33.9581C39.2164 33.0833 39.5606 32.0293 39.5606 30.8963C39.5606 27.8728 37.1097 25.4131 34.097 25.4131C31.0845 25.4131 28.6335 27.8728 28.6335 30.8963C28.6335 33.9198 31.0845 36.3795 34.097 36.3795C35.2607 36.3795 36.3406 36.0125 37.2278 35.3877L37.886 36.0487C38.0814 36.245 38.3381 36.3433 38.5948 36.3433C38.8501 36.3433 39.1054 36.2461 39.3005 36.0518C39.6921 35.662 39.6935 35.0287 39.3036 34.6371L38.6275 33.9581ZM34.097 34.379C32.1876 34.379 30.6341 32.8167 30.6341 30.8963C30.6341 28.976 32.1876 27.4136 34.097 27.4136C36.0066 27.4136 37.5601 28.976 37.5601 30.8963C37.5601 31.4729 37.4199 32.0172 37.1723 32.4966L36.4479 31.769C36.0583 31.3776 35.4249 31.3762 35.0334 31.7659C34.6418 32.1557 34.6405 32.789 35.0303 33.1806L35.7838 33.9373C35.2843 34.2185 34.7089 34.379 34.097 34.379Z" fill="white"/>
</g>
<defs>
<clipPath id="clip0_3_275">
<rect width="46.5582" height="46.5582" fill="white" transform="translate(0.953369 0.819824)"/>
</clipPath>
</defs>
</svg>
