<svg width="34" height="34" viewBox="0 0 34 34" fill="none" xmlns="http://www.w3.org/2000/svg">
<path d="M2.65625 31.3438L9.03125 29.5906C11.3156 31.025 14.0781 31.875 17 31.875C25.2344 31.875 31.875 25.2344 31.875 17C31.875 8.76562 25.2344 2.125 17 2.125C8.76562 2.125 2.125 8.76562 2.125 17C2.125 19.9219 2.975 22.6844 4.40938 24.9688L2.65625 31.3438Z" fill="#25D366"/>
<path d="M24.3844 21.0375C23.375 23.1625 21.5156 23.4281 21.5156 23.4281C19.9219 23.7469 17.9031 23.0562 16.3094 22.3125C14.025 21.25 12.0594 19.55 10.7313 17.3719C10.1469 16.3625 9.61563 15.1937 9.5625 14.0781C9.5625 14.0781 9.35 12.2188 11.1563 10.7313C11.3156 10.625 11.475 10.5719 11.6875 10.5719H12.4844C12.8031 10.5719 13.1219 10.7844 13.2281 11.1031L14.45 14.0781C14.5563 14.3969 14.5031 14.7156 14.2906 14.9813L13.4938 15.8312C13.2281 16.0969 13.2281 16.4688 13.3875 16.7875C13.4406 16.8938 13.5469 17.0531 13.7063 17.2125C14.6625 18.4875 15.9375 19.4437 17.3719 20.0812C17.5844 20.1875 17.7438 20.2406 17.9031 20.2937C18.275 20.4 18.5938 20.2406 18.8063 19.975L19.4438 19.0187C19.6031 18.7531 19.9219 18.5937 20.2406 18.6469L23.4281 19.125C23.7469 19.1781 24.0125 19.4438 24.1188 19.7625L24.3313 20.5594C24.4375 20.6656 24.4375 20.8781 24.3844 21.0375Z" fill="white"/>
</svg>
