<svg width="28" height="26" viewBox="0 0 28 26" fill="none" xmlns="http://www.w3.org/2000/svg">
<path d="M11.9961 14.5258C11.9961 13.0353 10.7835 11.8228 9.29298 11.8228C7.80249 11.8228 6.58984 13.0353 6.58984 14.5258H8.23046C8.23046 13.94 8.70713 13.4634 9.29298 13.4634C9.87883 13.4634 10.3554 13.94 10.3554 14.5258H11.9961Z" fill="#1A4382"/>
<path d="M18.707 11.8226C17.2165 11.8226 16.0039 13.0352 16.0039 14.5257H17.6445C17.6445 13.9399 18.1211 13.4633 18.707 13.4633C19.2928 13.4633 19.7695 13.9399 19.7695 14.5257H21.4101C21.4101 13.0352 20.1975 11.8226 18.707 11.8226Z" fill="#1A4382"/>
<path d="M14 19.3263C12.9628 19.3263 11.9903 18.77 11.4618 17.8746L10.0488 18.7083C10.8709 20.1014 12.3849 20.9668 14 20.9668C15.615 20.9668 17.129 20.1014 17.9511 18.7083L16.5382 17.8745C16.0098 18.77 15.0372 19.3263 14 19.3263Z" fill="#1A4382"/>
<path d="M26.9326 11.6201C26.4101 11.0982 25.7539 10.7531 25.0418 10.618C23.5037 5.86526 19.0422 2.59293 14 2.59293H13.45C12.1292 2.59293 11.0547 1.51835 11.0547 0.197632H9.41409C9.41409 1.09386 9.70809 1.92247 10.2042 2.59293H9.68441C8.36363 2.59293 7.28911 1.51835 7.28911 0.197632H5.64849C5.64849 1.98019 6.8105 3.49547 8.41642 4.02837C5.87653 5.42473 3.88574 7.75197 2.9583 10.618C2.24611 10.7531 1.58982 11.0983 1.06689 11.6207C0.37889 12.3094 0 13.2246 0 14.1976C0 15.1587 0.370755 16.0655 1.04404 16.7509C1.57023 17.2866 2.23477 17.6401 2.9583 17.7773C4.49621 22.5301 8.95778 25.8023 14 25.8023C19.0422 25.8023 23.5037 22.5301 25.0417 17.7773C25.7652 17.6401 26.4298 17.2866 26.956 16.7509C27.6292 16.0655 28 15.1587 28 14.1976C28 13.2246 27.6211 12.3094 26.9326 11.6201ZM24.3954 16.2004L23.7798 16.212L23.619 16.8064C22.4479 21.1371 18.4924 24.1617 13.9999 24.1617C9.5075 24.1617 5.55209 21.1371 4.381 16.8064L4.22025 16.212L3.60463 16.2004C2.52163 16.1799 1.64056 15.2815 1.64056 14.1976C1.64056 13.6625 1.84902 13.1591 2.22686 12.7808C2.59534 12.4127 3.08463 12.2046 3.60446 12.1948L4.22019 12.1833L4.38094 11.5888C5.55209 7.2582 9.50755 4.23361 14 4.23361C15.4827 4.23361 16.689 5.43989 16.689 6.92264C16.689 8.40538 15.4827 9.61172 14 9.61172C12.5173 9.61172 11.311 8.40544 11.311 6.92269H9.67035C9.67035 9.31008 11.6126 11.2523 14 11.2523C16.3874 11.2523 18.3296 9.31008 18.3296 6.92269C18.3296 6.24327 18.1719 5.6002 17.8918 5.02736C20.6434 6.19778 22.8046 8.57731 23.619 11.5888L23.7798 12.1833L24.3955 12.1949C24.9154 12.2046 25.4046 12.4127 25.7725 12.7802C26.151 13.1591 26.3594 13.6625 26.3594 14.1977C26.3594 15.2816 25.4783 16.18 24.3954 16.2004Z" fill="#1A4382"/>
</svg>
