<svg width="60" height="60" viewBox="0 0 60 60" fill="none" xmlns="http://www.w3.org/2000/svg">
<path d="M52.3533 16.1814C51.3464 9.15797 45.7408 4.72534 45.0989 4.23729C41.0732 0.470582 36.4055 2.26048 34.1747 3.94633C34.1167 3.91739 34.0637 3.87532 34.0117 3.81931C33.4847 3.25439 33.4067 1.72744 33.4527 1.07557C33.4907 0.525656 33.0767 0.0466299 32.5268 0.00760941C32.2368 -0.0133656 25.4383 -0.392321 16.7491 8.29694L15.6341 9.41084C15.1422 9.90381 14.4602 10.1358 13.8523 10.0028C13.6573 9.96181 13.5554 9.90885 13.5493 9.93182C13.5473 9.87076 13.5713 9.49685 14.2492 8.61192C14.5712 8.19288 14.5112 7.59598 14.1122 7.24901C13.7152 6.90298 13.1152 6.927 12.7442 7.30198C12.5182 7.53 7.23861 12.9705 7.50367 19.753C7.6437 23.3307 9.31256 26.5766 12.4372 29.4153L12.4293 32.1151C12.4293 38.9446 13.1002 45.9011 17.9658 50.5218C18.7498 51.2657 19.5937 51.9306 20.4557 52.5546V59.0001C20.4557 59.5531 20.9036 60 21.4555 60C22.0074 60 22.4554 59.5531 22.4554 59.0001V53.9365C22.4834 53.9555 22.5124 53.9744 22.5404 53.9925C22.6143 54.0435 22.6904 54.0944 22.7643 54.1445L23.7253 54.7894C24.1042 55.0464 24.4742 55.3194 24.8422 55.5923C26.4431 56.7763 28.099 58.0001 30.4278 58.0001C32.7557 58.0001 34.4115 56.7762 36.0124 55.5933C36.3814 55.3193 36.7513 55.0463 37.1303 54.7893L38.0892 54.1454C38.1231 54.1224 38.1582 54.0984 38.1922 54.0754C38.2791 54.0185 38.3671 53.9594 38.4542 53.9005V59.0001C38.4542 59.5531 38.9021 60 39.4541 60C40.006 60 40.4539 59.5531 40.4539 59.0001V52.5166C41.2969 51.9027 42.1219 51.2497 42.8897 50.5218C47.7794 45.8792 48.4532 38.8776 48.4532 32.0022V29.3174C51.6623 24.9867 52.9833 20.569 52.3533 16.1814ZM46.4537 29.0024V32.0022C46.4537 38.4316 45.8548 44.9482 41.5131 49.0699C40.6211 49.9158 39.6162 50.6678 38.5894 51.3837C38.0585 51.7547 37.5225 52.1176 36.9845 52.4777L36.0086 53.1337C35.6067 53.4057 35.2146 53.6957 34.8237 53.9846C33.4209 55.0215 32.097 56.0005 30.428 56.0005C28.9672 56.0005 27.7702 55.2505 26.5553 54.3686C26.3813 54.2427 26.2072 54.1147 26.0323 53.9846C25.6413 53.6957 25.2484 53.4057 24.8474 53.1337L23.9014 52.4978C23.3495 52.1288 22.7985 51.7558 22.2535 51.3759C21.2316 50.663 20.2297 49.913 19.3427 49.07C14.8091 44.7674 14.429 38.0629 14.429 32.1183L14.456 23.003C14.456 22.327 14.5879 21.6721 14.849 21.0562C14.95 20.8151 15.08 20.5932 15.2209 20.3823C15.2629 20.3192 15.3099 20.2623 15.3549 20.2023C15.4658 20.0563 15.5869 19.9173 15.7159 19.7874C15.7699 19.7324 15.8229 19.6773 15.8809 19.6263C16.0479 19.4764 16.2259 19.3374 16.4158 19.2154C16.4368 19.2015 16.4558 19.1854 16.4769 19.1715C16.6879 19.0405 16.9138 18.9325 17.1468 18.8375C17.2187 18.8086 17.2937 18.7855 17.3687 18.7595C17.5397 18.6995 17.7157 18.6494 17.8957 18.6084C17.9786 18.5914 18.0606 18.5714 18.1436 18.5584C18.3586 18.5233 18.5775 18.5014 18.7985 18.4934C18.8425 18.4924 18.8855 18.4854 18.9295 18.4854C19.1045 18.4843 19.2825 18.5103 19.4605 18.5284C19.5785 18.5403 19.6945 18.5383 19.8134 18.5594C20.1094 18.6095 20.4054 18.6874 20.6993 18.7934C22.2241 19.3454 25.155 20.0033 30.4545 20.0033C35.754 20.0033 38.6849 19.3454 40.2097 18.7934C42.2546 18.0545 44.4354 18.6894 45.5804 20.2323C45.6014 20.2612 45.6284 20.2823 45.6483 20.3113C45.8093 20.5402 45.9483 20.7882 46.0603 21.0552C46.3213 21.6722 46.4534 22.3271 46.4534 23.0031V29.0024H46.4537Z" fill="#433DEF"/>
</svg>
