<svg version="1.2" xmlns="http://www.w3.org/2000/svg" viewBox="0 0 28 26" width="28" height="26">
	<title>group-4</title>
	<style>
		.s0 { fill: #000000 } 
	</style>
	<path class="s0" d="m12 14.5c0-1.5-1.2-2.7-2.7-2.7-1.5 0-2.7 1.2-2.7 2.7h1.6c0-0.6 0.5-1 1.1-1 0.6 0 1.1 0.4 1.1 1z"/>
	<path class="s0" d="m18.7 11.8c-1.5 0-2.7 1.2-2.7 2.7h1.6c0-0.6 0.5-1 1.1-1 0.6 0 1.1 0.4 1.1 1h1.6c0-1.5-1.2-2.7-2.7-2.7z"/>
	<path class="s0" d="m14 19.3c-1 0-2-0.5-2.5-1.4l-1.5 0.8c0.9 1.4 2.4 2.3 4 2.3 1.6 0 3.1-0.9 4-2.3l-1.5-0.8c-0.5 0.9-1.5 1.4-2.5 1.4z"/>
	<path class="s0" d="m26.9 11.6c-0.5-0.5-1.1-0.8-1.9-1-1.5-4.7-6-8-11-8h-0.5c-1.4 0-2.4-1.1-2.4-2.4h-1.7c0 0.9 0.3 1.7 0.8 2.4h-0.5c-1.3 0-2.4-1.1-2.4-2.4h-1.7c0 1.8 1.2 3.3 2.8 3.8-2.5 1.4-4.5 3.8-5.4 6.6-0.8 0.2-1.4 0.5-1.9 1-0.7 0.7-1.1 1.6-1.1 2.6 0 1 0.4 1.9 1 2.6 0.6 0.5 1.2 0.8 2 1 1.5 4.7 6 8 11 8 5 0 9.5-3.3 11-8 0.8-0.2 1.4-0.5 2-1 0.6-0.7 1-1.6 1-2.6 0-1-0.4-1.9-1.1-2.6zm-2.5 4.6h-0.6l-0.2 0.6c-1.2 4.3-5.1 7.4-9.6 7.4-4.5 0-8.4-3.1-9.6-7.4l-0.2-0.6h-0.6c-1.1 0-2-0.9-2-2 0-0.5 0.2-1 0.6-1.4 0.4-0.4 0.9-0.6 1.4-0.6h0.6l0.2-0.6c1.2-4.3 5.1-7.4 9.6-7.4 1.5 0 2.7 1.2 2.7 2.7 0 1.5-1.2 2.7-2.7 2.7-1.5 0-2.7-1.2-2.7-2.7h-1.6c0 2.4 1.9 4.4 4.3 4.4 2.4 0 4.3-2 4.3-4.4q0-1-0.4-1.9c2.7 1.2 4.9 3.6 5.7 6.6l0.2 0.6h0.6c0.5 0 1 0.2 1.4 0.6 0.4 0.4 0.6 0.9 0.6 1.4 0 1.1-0.9 2-2 2z"/>
</svg>