<svg width="45" height="44" viewBox="0 0 45 44" fill="none" xmlns="http://www.w3.org/2000/svg">
<g clip-path="url(#clip0_26_762)">
<path d="M38.12 6.32317C33.94 2.2825 28.44 0 22.5825 0C5.77083 0 -4.7855 18.2142 3.60933 32.703L0.5 44L12.1142 40.9713C17.1742 43.7048 21.3193 43.4628 22.5935 43.6242C42.0873 43.6242 51.7912 20.0402 38.0925 6.39467L38.12 6.32317Z" fill="#ECEFF1"/>
<path d="M22.6229 39.8769L22.6119 39.875H22.5825C16.7489 39.875 13.0217 37.1122 12.655 36.9527L5.78003 38.7402L7.62253 32.0577L7.18436 31.3702C5.36936 28.4809 4.40503 25.1534 4.40503 21.7269C4.40503 5.60635 24.1042 -2.45481 35.5039 8.93936C46.876 20.2144 38.8919 39.8769 22.6229 39.8769Z" fill="#4CAF50"/>
<path d="M32.5962 26.2295L32.5797 26.367C32.0278 26.092 29.3402 24.7775 28.8397 24.596C27.7158 24.1798 28.033 24.53 25.8752 27.0013C25.5543 27.3588 25.2353 27.3863 24.6908 27.1388C24.1408 26.8638 22.3753 26.2863 20.2853 24.4163C18.6573 22.9588 17.5647 21.1713 17.242 20.6213C16.7048 19.6937 17.8287 19.5617 18.8517 17.6257C19.035 17.2407 18.9415 16.9382 18.8058 16.665C18.6683 16.39 17.5738 13.695 17.1155 12.6207C16.6755 11.55 16.2227 11.6857 15.8835 11.6857C14.8275 11.594 14.0557 11.6087 13.3755 12.3163C10.4165 15.5687 11.1627 18.9237 13.6945 22.4913C18.6702 29.0033 21.3212 30.2023 26.1685 31.867C27.4775 32.2832 28.671 32.2245 29.6152 32.0888C30.6675 31.922 32.8547 30.767 33.3112 29.4745C33.7787 28.182 33.7787 27.1095 33.6412 26.862C33.5055 26.6145 33.1462 26.477 32.5962 26.2295Z" fill="#FAFAFA"/>
</g>
<defs>
<clipPath id="clip0_26_762">
<rect width="44" height="44" fill="white" transform="translate(0.5)"/>
</clipPath>
</defs>
</svg>
