<svg width="40" height="40" viewBox="0 0 40 40" fill="none" xmlns="http://www.w3.org/2000/svg">
<path d="M12.3134 33.9828C15.608 33.9828 17.931 30.7637 16.8904 27.6371L16.6628 26.9532H17.1439C17.7901 26.9532 18.3158 27.4789 18.3158 28.1251V32.811C18.3158 33.4582 18.8405 33.9828 19.4876 33.9828C20.1348 33.9828 20.6595 33.4582 20.6595 32.811V28.1251C20.6595 27.4789 21.1852 26.9532 21.8314 26.9532H23.3373L23.1096 27.6371C22.0692 30.763 24.3913 33.9828 27.6866 33.9828C30.4452 33.9828 31.715 31.8025 31.7323 31.7868C34.1681 28.1168 34.1579 23.3808 31.7061 19.7214C29.8485 16.9491 25.7606 16.831 23.7751 19.5858C22.8567 20.8603 22.6149 22.4457 23.1118 23.9359L23.3364 24.6096H21.8313C20.9316 24.6096 20.1101 24.9498 19.4876 25.5077C18.8651 24.9498 18.0436 24.6096 17.1438 24.6096H16.6636C16.6976 24.3441 17.9613 21.9954 16.2248 19.5859C14.2408 16.8331 10.1529 16.9471 8.29382 19.7214C5.8421 23.3809 5.84523 28.1369 8.28093 31.8068C9.17702 33.1568 10.6929 33.9828 12.3134 33.9828ZM26.0741 25.4107L25.3351 23.1945C25.0796 22.4278 25.204 21.6118 25.6766 20.9561C26.6974 19.5396 28.8019 19.5975 29.759 21.0259C31.6823 23.8966 31.6771 27.6317 29.7662 30.5108C29.3055 31.2049 28.5197 31.6392 27.6865 31.6392C25.9931 31.6392 24.7983 29.9849 25.3334 28.3774L26.0742 26.1516C26.1543 25.9111 26.1542 25.6511 26.0741 25.4107ZM10.2409 21.0259C11.1972 19.5989 13.3015 19.5381 14.3234 20.9561C14.796 21.6118 14.9205 22.4277 14.6648 23.1944L13.9259 25.4107C13.9251 25.4132 13.9245 25.4159 13.9237 25.4185C13.8501 25.6441 13.8437 25.8978 13.9234 26.1432C13.9242 26.146 13.9248 26.1487 13.9257 26.1514L14.6666 28.3772C15.2013 29.9839 14.0076 31.639 12.3134 31.639C10.8689 31.639 10.2346 30.5035 10.2205 30.4907C8.30968 27.6118 8.31773 23.8965 10.2409 21.0259Z" fill="#1A4382"/>
<path d="M36.4844 4.72656H28.1156V3.51562C28.1156 1.57711 26.5385 0 24.6 0H15.3086C13.3701 0 11.793 1.57711 11.793 3.51562V4.72656H3.51562C1.57711 4.72656 0 6.30367 0 8.24219V36.4844C0 38.4229 1.57711 40 3.51562 40H36.4844C38.4229 40 40 38.4229 40 36.4844V8.24219C40 6.30367 38.4229 4.72656 36.4844 4.72656ZM14.1367 3.51562C14.1367 2.86945 14.6624 2.34375 15.3086 2.34375H24.6C25.2462 2.34375 25.7719 2.86945 25.7719 3.51562V4.72656H14.1367V3.51562ZM37.6562 36.4844C37.6562 37.1305 37.1305 37.6562 36.4844 37.6562H3.51562C2.86945 37.6562 2.34375 37.1305 2.34375 36.4844V14.0625H37.6562V36.4844ZM37.6562 11.7188H2.34375V8.24219C2.34375 7.59602 2.86945 7.07031 3.51562 7.07031H36.4844C37.1305 7.07031 37.6562 7.59602 37.6562 8.24219V11.7188Z" fill="#1A4382"/>
</svg>
