<svg width="28" height="28" viewBox="0 0 28 28" fill="none" xmlns="http://www.w3.org/2000/svg">
<g clip-path="url(#clip0_2058_429)">
<path d="M27.9577 26.9201L26.1084 21.372C25.5326 19.6447 24.0708 18.3264 22.2933 17.9313L17.4562 16.8564V14.7801C19.5543 13.5772 20.9708 11.315 20.9708 8.72813V5.33624C20.9708 4.51423 20.6992 3.69934 20.206 3.04166L20.2024 3.03685C19.5781 2.20582 17.6299 0 14.0005 0C10.371 0 8.42296 2.20434 7.79761 3.03685L7.794 3.04166C7.30078 3.69934 7.02914 4.51423 7.02914 5.33624V8.72813C7.02914 11.315 8.44566 13.5772 10.5437 14.7801V16.8564L5.70669 17.9313C3.92929 18.3264 2.46744 19.6447 1.89163 21.372L0.0423225 26.9201C-0.100959 27.3499 0.131354 27.8144 0.561143 27.9577C0.991041 28.1009 1.4555 27.8686 1.59878 27.4389L3.4481 21.8909C3.84267 20.7071 4.84454 19.8036 6.06265 19.5329L7.0292 19.3181V22.9795C6.009 23.323 5.27192 24.2879 5.27192 25.4224C5.27192 26.8437 6.42824 28.0001 7.84951 28.0001C9.27078 28.0001 10.4271 26.8437 10.4271 25.4224C10.4271 24.2879 9.69002 23.323 8.66982 22.9795V18.9535L10.9628 18.444L13.2966 22.3299C13.4449 22.577 13.7118 22.7282 14 22.7282C14.2881 22.7282 14.5551 22.577 14.7034 22.3299L17.0352 18.4436L19.3302 18.9536V21.1855C18.5143 21.3832 16.6942 22.3077 16.6942 24.5439V27.1797C16.6942 27.6327 17.0615 28 17.5145 28H18.3932C18.8462 28 19.2135 27.6327 19.2135 27.1797C19.2135 26.7267 18.8462 26.3594 18.3932 26.3594H18.3349V24.5437C18.3349 23.5407 19.1465 22.7281 20.1505 22.7281C21.1516 22.7281 21.9661 23.5426 21.9661 24.5437V26.3594H21.9078C21.4548 26.3594 21.0875 26.7267 21.0875 27.1797C21.0875 27.6327 21.4548 28 21.9078 28H22.7864C23.2394 28 23.6067 27.6327 23.6067 27.1797V24.5437C23.6067 22.9206 22.4818 21.556 20.9708 21.1866V19.3181L21.9373 19.5328C23.1554 19.8035 24.1573 20.7071 24.5519 21.8908L26.4012 27.4389C26.5445 27.8686 27.0089 28.1008 27.4388 27.9577C27.8686 27.8144 28.1009 27.3499 27.9577 26.9201ZM8.78642 25.4224C8.78642 25.939 8.36609 26.3594 7.84946 26.3594C7.33282 26.3594 6.91249 25.939 6.91249 25.4224C6.91249 24.9057 7.33282 24.4854 7.84946 24.4854C8.36609 24.4854 8.78642 24.9057 8.78642 25.4224ZM8.66977 5.33624C8.66977 4.86834 8.82388 4.40453 9.10388 4.02954C9.10486 4.02828 9.10579 4.02702 9.10672 4.02577C9.60405 3.36268 11.1212 1.64062 14.0081 1.64062C16.8824 1.64062 18.4041 3.37356 18.8933 4.02577C18.8942 4.02702 18.8952 4.02828 18.8961 4.02954C19.1761 4.40448 19.3302 4.86834 19.3302 5.33624V6.74773L18.2009 5.61848C18.0305 5.44808 17.8543 5.27187 17.5145 5.27187C17.3871 5.27187 17.2616 5.30152 17.1476 5.3585C15.1767 6.34397 12.8233 6.34397 10.8523 5.3585C10.5365 5.20045 10.155 5.26241 9.90543 5.51217L8.66982 6.74652L8.66977 5.33624ZM8.66977 8.72813V8.55384C9.14095 8.41777 9.57293 8.16473 9.92944 7.80834C10.1732 7.56454 10.446 7.29176 10.663 7.07476C12.7901 7.95813 15.2097 7.95823 17.337 7.07476L18.0706 7.80839C18.4271 8.16479 18.859 8.41777 19.3302 8.55384V8.72813C19.3302 11.6672 16.9391 14.0584 14 14.0584C11.0609 14.0584 8.66977 11.6672 8.66977 8.72813ZM15.8156 17.2874L14 20.3134L12.1844 17.2873V15.4586C12.7635 15.615 13.3721 15.6989 14 15.6989C14.6279 15.6989 15.2365 15.615 15.8156 15.4586V17.2874Z" fill="black"/>
</g>
<defs>
<clipPath id="clip0_2058_429">
<rect width="28" height="28" fill="white"/>
</clipPath>
</defs>
</svg>
