<svg width="47" height="48" viewBox="0 0 47 48" fill="none" xmlns="http://www.w3.org/2000/svg">
<g clip-path="url(#clip0_3_319)">
<path d="M14.7714 28.2817C14.0181 28.2817 13.4074 28.8925 13.4074 29.6457V33.7378H9.46483V29.6457C9.46483 28.8925 8.85412 28.2817 8.10083 28.2817C7.34753 28.2817 6.73682 28.8925 6.73682 29.6457V40.5578C6.73682 41.3111 7.34753 41.9218 8.10083 41.9218C8.85412 41.9218 9.46483 41.3111 9.46483 40.5578V36.4658H13.4074V40.5578C13.4074 41.3111 14.0181 41.9218 14.7714 41.9218C15.5247 41.9218 16.1354 41.3111 16.1354 40.5578V29.6457C16.1354 28.8925 15.5248 28.2817 14.7714 28.2817Z" fill="white"/>
<path d="M45.9532 37.5485L44.9431 31.9791C44.8663 31.5552 44.5936 31.1925 44.2077 31.0009L41.712 29.7613L41.2076 28.1239C41.0747 27.6925 40.737 27.3548 40.3056 27.2219L38.7981 26.7575L38.3337 25.25C38.2008 24.8186 37.8631 24.481 37.4317 24.3482L35.9242 23.8838L35.4598 22.3763C35.3944 22.1638 35.278 21.9705 35.1207 21.8133L32.6415 19.3341L33.0325 18.9432C33.9772 17.9985 34.4974 16.7426 34.4974 15.4067C34.4974 14.0708 33.9772 12.8149 33.0325 11.8702L26.9487 5.78634C26.0041 4.84172 24.7482 4.32149 23.4122 4.32149C22.7904 4.32149 22.1865 4.43562 21.6227 4.65131C19.8105 2.32159 16.9815 0.819824 13.8081 0.819824C8.35117 0.819824 3.9117 5.25929 3.9117 10.7162C3.9117 11.4471 3.99063 12.1652 4.14586 12.8655C2.35547 13.137 0.979004 14.6865 0.979004 16.5515V43.6497C0.979004 45.7054 2.65154 47.378 4.70728 47.378H18.1654C20.2212 47.378 21.8937 45.7054 21.8937 43.6497V27.6674C22.0035 27.6745 22.1137 27.6794 22.2247 27.6794C23.5605 27.6794 24.8166 27.1592 25.7612 26.2146L26.1522 25.8236L38.0762 37.7476C38.2726 37.944 38.5243 38.0758 38.7976 38.1252L44.3683 39.1341C44.4493 39.1488 44.5305 39.156 44.6115 39.156C44.9698 39.156 45.3178 39.0145 45.576 38.7563C45.892 38.44 46.033 37.9887 45.9532 37.5485ZM13.8081 3.54783C16.0738 3.54783 18.0959 4.60557 19.4104 6.25183L12.839 12.8232H6.9557C6.7471 12.145 6.63971 11.4398 6.63971 10.7163C6.63971 6.76351 9.85539 3.54783 13.8081 3.54783ZM19.1656 43.6496C19.1656 44.2011 18.7169 44.6499 18.1654 44.6499H4.70719C4.15568 44.6499 3.70692 44.2011 3.70692 43.6496V16.5514C3.70692 15.9999 4.15568 15.5512 4.70719 15.5512H6.0109C6.02409 15.5512 6.03727 15.5515 6.05046 15.5512H11.2523C11.1118 16.2147 11.106 16.9011 11.2368 17.5662C10.7248 17.6423 10.2784 18.0063 10.1255 18.536C9.91641 19.2598 10.3337 20.016 11.0574 20.225C11.7082 20.413 12.3786 20.5324 13.0571 20.5835L18.6882 26.2147C18.8394 26.3659 18.9995 26.505 19.1657 26.634V43.6496H19.1656ZM39.7033 35.5169L27.2271 23.0406C26.8312 22.6449 26.2341 22.5309 25.7203 22.7535C25.629 22.7932 25.5296 22.8332 25.4077 22.8795C25.2275 22.948 25.0639 23.0538 24.9277 23.19L23.8322 24.2856C23.4028 24.715 22.8319 24.9514 22.2246 24.9514C21.6174 24.9514 21.0465 24.7149 20.6171 24.2856L14.641 18.3095C14.632 18.3 14.6225 18.291 14.6132 18.2817L14.5334 18.2019C13.7414 17.4098 13.6577 16.1743 14.281 15.2878C14.4393 15.1721 14.5719 15.0239 14.6681 14.8521L20.7157 8.80461C20.8844 9.41368 20.9766 10.0542 20.9766 10.7163C20.9766 11.8629 20.7144 12.9577 20.1974 13.9704C19.9463 14.4624 20.0235 15.0347 20.3466 15.4404C20.3815 15.4858 20.4183 15.5297 20.459 15.5703C20.7136 15.824 21.0646 15.9695 21.4238 15.9695C21.783 15.9695 22.134 15.824 22.3886 15.5703C22.5442 15.4148 22.6586 15.2221 22.7241 15.0136C23.3658 13.6828 23.7047 12.2022 23.7047 10.7162C23.7047 9.43478 23.4598 8.20954 23.0145 7.08469C23.1446 7.06187 23.2775 7.0495 23.4124 7.0495C24.0197 7.0495 24.5905 7.28602 25.0199 7.71532L31.1037 13.7991C31.5331 14.2285 31.7696 14.7994 31.7696 15.4067C31.7696 16.0139 31.533 16.5848 31.1037 17.0141L30.0081 18.1097C29.8717 18.2461 29.7657 18.4098 29.6974 18.5902C29.6522 18.7091 29.6111 18.8112 29.5715 18.9024C29.3492 19.416 29.463 20.0133 29.8587 20.409L32.9525 23.5028L33.5297 25.3763C33.6625 25.8077 34.0003 26.1454 34.4316 26.2783L35.9391 26.7427L36.4035 28.2502C36.5364 28.6816 36.8741 29.0192 37.3055 29.1521L38.813 29.6165L39.2774 31.124C39.3874 31.4813 39.6393 31.7777 39.9742 31.944L42.3812 33.1395L42.918 36.099L39.7033 35.5169Z" fill="white"/>
</g>
<defs>
<clipPath id="clip0_3_319">
<rect width="46.5582" height="46.5582" fill="white" transform="translate(0.197998 0.819824)"/>
</clipPath>
</defs>
</svg>
