<svg width="24" height="24" viewBox="0 0 24 24" fill="none" xmlns="http://www.w3.org/2000/svg">
<g clip-path="url(#clip0_4209_224)">
<mask id="mask0_4209_224" style="mask-type:luminance" maskUnits="userSpaceOnUse" x="0" y="0" width="24" height="24">
<path d="M24 0H0V24H24V0Z" fill="white"/>
</mask>
<g mask="url(#mask0_4209_224)">
<path d="M12 24C18.6274 24 24 18.6274 24 12C24 5.37258 18.6274 0 12 0C5.37258 0 0 5.37258 0 12C0 18.6274 5.37258 24 12 24Z" fill="#F0F0F0"/>
<path d="M2.4813 4.69434C1.53869 5.92073 0.827922 7.33424 0.414062 8.86982H6.65678L2.4813 4.69434Z" fill="#0052B4"/>
<path d="M23.5863 8.86978C23.1724 7.33425 22.4617 5.92073 21.5191 4.69434L17.3438 8.86978H23.5863Z" fill="#0052B4"/>
<path d="M0.414062 15.1309C0.827969 16.6664 1.53874 18.0799 2.4813 19.3063L6.65664 15.1309H0.414062Z" fill="#0052B4"/>
<path d="M19.3063 2.48036C18.0799 1.53775 16.6665 0.826992 15.1309 0.413086V6.65576L19.3063 2.48036Z" fill="#0052B4"/>
<path d="M4.69531 21.5191C5.9217 22.4617 7.33521 23.1724 8.87074 23.5863V17.3438L4.69531 21.5191Z" fill="#0052B4"/>
<path d="M8.8707 0.413086C7.33516 0.826992 5.92165 1.53775 4.69531 2.48032L8.8707 6.65571V0.413086Z" fill="#0052B4"/>
<path d="M15.1309 23.5863C16.6664 23.1724 18.0799 22.4616 19.3063 21.5191L15.1309 17.3438V23.5863Z" fill="#0052B4"/>
<path d="M17.3438 15.1309L21.5191 19.3063C22.4617 18.08 23.1724 16.6664 23.5863 15.1309H17.3438Z" fill="#0052B4"/>
<path d="M23.8984 10.4348H13.5653V0.101578C13.0529 0.034875 12.5305 0 12 0C11.4694 0 10.9471 0.034875 10.4348 0.101578V10.4347H0.101578C0.034875 10.9471 0 11.4695 0 12C0 12.5306 0.034875 13.0529 0.101578 13.5652H10.4347V23.8984C10.9471 23.9651 11.4694 24 12 24C12.5305 24 13.0529 23.9652 13.5652 23.8984V13.5653H23.8984C23.9651 13.0529 24 12.5306 24 12C24 11.4695 23.9651 10.9471 23.8984 10.4348Z" fill="#D80027"/>
<path d="M15.1309 15.1309L20.4857 20.4857C20.732 20.2395 20.9669 19.9821 21.191 19.7153L16.6066 15.1309H15.1309Z" fill="#D80027"/>
<path d="M8.87048 15.1309L3.51562 20.4857C3.76181 20.7319 4.0192 20.9669 4.28601 21.191L8.87048 16.6065V15.1309Z" fill="#D80027"/>
<path d="M8.86878 8.8696L3.51397 3.51465C3.26768 3.76083 3.03275 4.01822 2.80859 4.28504L7.39311 8.86955L8.86878 8.8696Z" fill="#D80027"/>
<path d="M15.1309 8.8698L20.4857 3.51489C20.2395 3.26861 19.9821 3.03368 19.7153 2.80957L15.1309 7.39408V8.8698Z" fill="#D80027"/>
</g>
<g clip-path="url(#clip1_4209_224)">
<path d="M16 0.685547L14.5996 4.56824C15.8922 8.83402 15.8922 15.1655 14.5996 19.4315L16 23.3137C20.6601 21.6659 23.9993 17.2239 23.9993 11.9994C23.9993 6.77568 20.6601 2.33343 16 0.685547Z" fill="#E61E25"/>
<path d="M16.0007 4.56836V0.685672C14.7493 0.243099 13.4033 0 12 0C13.8504 0 11.2847 6.27117 16.0007 4.56836Z" fill="#E4E4E4"/>
<path d="M11.9999 23.9998C13.4031 23.9998 14.7491 23.7567 16.0006 23.3141V19.4318C11.332 18.9659 11.9999 23.9998 11.9999 23.9998Z" fill="#E4E4E4"/>
<path d="M0 11.9994C0 17.2414 3.36199 21.6951 8.04617 23.3297V0.669922C3.36199 2.30448 0 6.75823 0 11.9994Z" fill="#3757A6"/>
<path d="M16.0013 23.33V0.669844C14 0.000324547 13.851 0 12.0006 0C10.6148 0 9.28527 0.237981 8.04688 0.670168V23.33C9.28527 23.7622 10.6148 23.9998 12.0006 23.9998C13.851 23.9998 14.5 23.9998 16.0013 23.33Z" fill="#F3F4F5"/>
</g>
</g>
<defs>
<clipPath id="clip0_4209_224">
<rect width="24" height="24" fill="white"/>
</clipPath>
<clipPath id="clip1_4209_224">
<rect width="24" height="24" fill="white"/>
</clipPath>
</defs>
</svg>
