<svg width="40" height="40" viewBox="0 0 40 40" fill="none" xmlns="http://www.w3.org/2000/svg">
<g clip-path="url(#clip0_14_187)">
<path d="M25.6481 0.00116676C16.5583 -0.117033 9.52278 8.76544 11.6623 17.5769C10.59 17.6105 9.57192 17.9449 8.70335 18.5412C5.08736 16.0159 -0.0399081 18.7155 0.000481298 23.1386C0.000403175 25.5382 1.56145 27.6468 3.766 28.4045V38.8282C3.766 39.4753 4.29067 40 4.93784 40H12.4688C13.116 40 13.6406 39.4753 13.6406 38.8282V28.4072C15.032 27.9362 16.1631 26.9391 16.8109 25.6522C25.9773 33.0115 40.1062 26.2088 39.9991 14.3521C39.9993 6.4391 33.5614 0.00116676 25.6481 0.00116676ZM35.246 7.14518C35.1482 8.49646 34.5063 9.16824 33.7098 10.0002C33.5241 10.1942 33.3292 10.3979 33.1365 10.618C33.1224 10.5844 33.1083 10.5506 33.0941 10.517C32.5262 9.16106 31.8392 7.51806 31.6583 3.96058C33.057 4.77259 34.2776 5.85881 35.246 7.14518ZM25.6481 2.34485C26.8991 2.34485 28.106 2.53742 29.241 2.89405C29.069 5.34351 28.1182 6.52004 27.0337 7.8618C26.5662 8.44014 26.0742 9.04871 25.6482 9.77315C25.2221 9.04871 24.7301 8.44014 24.2627 7.8618C23.178 6.52012 22.2273 5.34359 22.0553 2.89405C23.1902 2.53742 24.397 2.34485 25.6481 2.34485ZM19.638 3.9605C19.4571 7.51798 18.7701 9.16098 18.2021 10.5169C18.188 10.5505 18.1739 10.5843 18.1598 10.6179C17.9671 10.3978 17.7721 10.1941 17.5865 10.0002C16.79 9.16816 16.1481 8.49639 16.0502 7.1451C17.0187 5.85881 18.2392 4.77259 19.638 3.9605ZM12.3025 26.327C11.7255 26.4097 11.2969 26.904 11.2969 27.4869V37.6562H6.10968V27.487C6.10968 26.9041 5.68117 26.4097 5.10408 26.327C3.53061 26.1016 2.34416 24.7308 2.34416 23.1385C2.32588 20.2837 5.88632 18.8281 7.86619 20.8852C8.30391 21.3505 9.10295 21.3505 9.54067 20.8852C10.2859 20.1146 11.3909 19.7721 12.4412 19.9729C13.0594 21.4252 13.9057 22.7526 14.965 23.9315C14.6514 25.1834 13.6143 26.139 12.3025 26.327ZM14.4986 18.809C13.3631 16.083 13.3631 12.6217 14.4986 9.89572C14.9147 10.598 15.4307 11.1375 15.8934 11.6209C16.7028 12.4665 17.2876 13.0774 17.2876 14.3524C17.2876 15.6273 16.7029 16.2383 15.8934 17.0838C15.4307 17.5671 14.9147 18.1066 14.4986 18.809ZM16.0502 21.5594C16.1481 20.2082 16.79 19.5364 17.5865 18.7044C17.7721 18.5104 17.9671 18.3067 18.1598 18.0867C18.1739 18.1202 18.188 18.154 18.2021 18.1877C18.7701 19.5435 19.4571 21.1865 19.638 24.744C18.2392 23.932 17.0187 22.8458 16.0502 21.5594ZM20.3638 17.2822C19.3912 15.2299 19.3918 13.4737 20.3638 11.4225C20.7194 10.5735 21.1416 9.56534 21.4716 8.07843C22.94 10.1534 24.4934 11.169 24.4762 14.3524C24.4936 17.5353 22.9398 18.5518 21.4716 20.6263C21.1416 19.1394 20.7194 18.1311 20.3638 17.2822ZM25.6481 26.3598C24.397 26.3598 23.1902 26.1672 22.0552 25.8106C22.2272 23.3611 23.1779 22.1846 24.2625 20.8428C24.73 20.2645 25.2219 19.6559 25.648 18.9315C26.0741 19.6559 26.566 20.2645 27.0335 20.8428C28.1181 22.1846 29.0688 23.3611 29.2408 25.8106C28.1061 26.1671 26.8992 26.3598 25.6481 26.3598ZM29.8246 20.6262C28.3563 18.5512 26.8028 17.5357 26.82 14.3523C26.8027 11.1693 28.3564 10.1529 29.8246 8.07835C30.1547 9.56526 30.5768 10.5734 30.9325 11.4224C32.7891 15.4092 30.6673 16.689 29.8246 20.6262ZM31.6583 24.744C31.8392 21.1866 32.5262 19.5436 33.0941 18.1877C33.1083 18.1539 33.1224 18.1202 33.1365 18.0867C33.3292 18.3067 33.5241 18.5104 33.7098 18.7044C34.5063 19.5364 35.1482 20.2082 35.246 21.5594C34.2776 22.8458 33.057 23.932 31.6583 24.744ZM35.4029 17.0837C34.5935 16.2381 34.0086 15.6272 34.0086 14.3523C34.0086 13.0773 34.5934 12.4664 35.4029 11.6208C35.8656 11.1374 36.3816 10.598 36.7976 9.89564C37.9331 12.6217 37.9331 16.0829 36.7976 18.8089C36.3815 18.1066 35.8655 17.5671 35.4029 17.0837Z" fill="#838D9D"/>
</g>
<defs>
<clipPath id="clip0_14_187">
<rect width="40" height="40" fill="white"/>
</clipPath>
</defs>
</svg>
