<svg width="40" height="40" viewBox="0 0 40 40" fill="none" xmlns="http://www.w3.org/2000/svg">
<g clip-path="url(#clip0_14_176)">
<path d="M21.5039 17.117C19.4363 17.5306 17.7442 18.9045 16.8982 20.7657C16.4901 20.677 16.0534 20.6606 15.6057 20.7245C14.6259 20.8645 13.6632 21.3648 12.8949 22.1331C12.1266 22.9015 11.6263 23.8642 11.4864 24.844C11.3309 25.9324 11.643 26.9578 12.3425 27.6574C13.0421 28.357 14.0675 28.669 15.1559 28.5135C16.1356 28.3736 17.0984 27.8734 17.8668 27.105C18.6352 26.3367 19.1354 25.374 19.2753 24.3942C19.3922 23.5758 19.2447 22.7931 18.8669 22.1576C19.3254 20.7618 20.4961 19.7088 21.9636 19.4153C24.5263 18.9028 26.5135 16.9156 27.0261 14.3528C27.1531 13.7181 26.7415 13.1007 26.1068 12.9739C25.4722 12.847 24.8549 13.2585 24.7279 13.8931C24.4014 15.5252 23.1359 16.7907 21.5039 17.117ZM16.2095 25.4477C15.419 26.2382 14.3909 26.3913 13.9998 26.0002C13.6086 25.609 13.7617 24.5809 14.5522 23.7905C15.3427 23 16.3708 22.8469 16.7619 23.2381C17.1531 23.6292 16.9999 24.6573 16.2095 25.4477Z" fill="#CEA83F"/>
<path d="M5.71336 29.3146C4.34258 30.6854 4.34266 32.9157 5.71336 34.2865C7.08406 35.6572 9.31445 35.6573 10.6852 34.2865C12.056 32.9157 12.0559 30.6854 10.6852 29.3146C9.31445 27.9439 7.08414 27.9439 5.71336 29.3146ZM9.02797 32.6293C8.57102 33.0862 7.82758 33.0861 7.3707 32.6293C6.91375 32.1723 6.91375 31.4289 7.3707 30.972C7.82766 30.515 8.57109 30.515 9.02797 30.972C9.48484 31.4289 9.48484 32.1723 9.02797 32.6293Z" fill="#CEA83F"/>
<path d="M38.972 10.9717L29.0283 1.02806C27.6576 -0.342646 25.4272 -0.342725 24.0564 1.02806C22.9762 2.10829 22.7479 3.7222 23.3703 5.02868L2.39876 26.0003C-0.7996 29.1987 -0.7996 34.4028 2.39884 37.6013C5.5972 40.7996 10.8014 40.7997 13.9998 37.6013L34.9713 16.6297C36.2778 17.2521 37.8917 17.0238 38.9719 15.9436C40.3427 14.5728 40.3427 12.3425 38.972 10.9717ZM12.3425 35.9439C10.0579 38.2285 6.34063 38.2284 4.0561 35.9439C1.77157 33.6594 1.77149 29.9421 4.05603 27.6576L24.885 6.82853L33.1714 15.1149L12.3425 35.9439ZM37.3147 14.2863C36.8577 14.7433 36.1143 14.7433 35.6574 14.2863L25.7137 4.34267C25.2567 3.88571 25.2567 3.14235 25.7137 2.6854C26.1706 2.22845 26.9141 2.22853 27.3709 2.6854L37.3146 12.6291C37.7716 13.0859 37.7716 13.8294 37.3147 14.2863Z" fill="#CEA83F"/>
</g>
<defs>
<clipPath id="clip0_14_176">
<rect width="40" height="40" fill="white"/>
</clipPath>
</defs>
</svg>
