<svg width="47" height="48" viewBox="0 0 47 48" fill="none" xmlns="http://www.w3.org/2000/svg">
<g clip-path="url(#clip0_3_347)">
<path d="M46.089 34.6338L33.1765 30.0871C32.4662 29.8368 31.6871 30.2101 31.4369 30.9207C31.1867 31.6313 31.56 32.4101 32.2705 32.6603L45.183 37.207C45.8957 37.4579 46.6733 37.0817 46.9226 36.3734C47.1728 35.6628 46.7996 34.884 46.089 34.6338Z" fill="white"/>
<path d="M21.1384 9.8585C22.2522 8.53151 22.8693 7.68646 22.9153 7.62308C23.3579 7.01355 23.2225 6.16059 22.613 5.71792C22.0034 5.27535 21.1505 5.41048 20.7078 6.02019C16.5723 11.7138 8.58258 19.0935 1.19112 22.8815C1.18885 22.8827 1.18666 22.8838 1.18448 22.8849C0.871306 23.0454 0.63797 23.3171 0.522757 23.6376C0.415637 23.9354 0.415546 24.262 0.522757 24.5603C0.63797 24.8808 0.871306 25.1525 1.18448 25.313C1.18675 25.3141 1.18894 25.3152 1.19112 25.3164C9.20584 29.4235 16.9505 37.0192 20.7079 42.1777C21.1483 42.7842 22.0007 42.9246 22.6131 42.48C23.2226 42.0373 23.3579 41.1844 22.9154 40.5748C22.8693 40.5114 22.2523 39.6664 21.1385 38.3394C23.3562 34.3575 24.1106 28.6728 24.1106 24.0989C24.1106 19.5219 23.3552 13.8386 21.1384 9.8585ZM19.2063 36.1363C15.0591 31.6002 10.0122 27.235 4.64287 24.0989C10.0021 20.9688 15.0461 16.6117 19.2063 12.0616C19.8892 13.5279 20.4293 15.3314 20.8007 17.3544C17.518 17.8443 14.9917 20.6819 14.9917 24.0989C14.9917 27.5159 17.5179 30.3535 20.8008 30.8435C20.4292 32.8666 19.8892 34.67 19.2063 36.1363ZM17.7196 24.0989C17.7196 22.0567 19.2234 20.3593 21.1817 20.0554C21.3136 21.3521 21.3827 22.7076 21.3827 24.0989C21.3827 25.4902 21.3136 26.8458 21.1817 28.1424C19.2234 27.8385 17.7196 26.1411 17.7196 24.0989Z" fill="white"/>
<path d="M33.1765 18.1106L46.089 13.5639C46.7996 13.3138 47.1728 12.5348 46.9226 11.8244C46.6725 11.1139 45.8933 10.7408 45.183 10.9908L32.2705 15.5375C31.56 15.7876 31.1867 16.5666 31.4369 17.277C31.6869 17.9872 32.4658 18.361 33.1765 18.1106Z" fill="white"/>
<path d="M32.7234 25.4629H45.6359C46.3892 25.4629 46.9999 24.8522 46.9999 24.0989C46.9999 23.3456 46.3892 22.7349 45.6359 22.7349H32.7234C31.9701 22.7349 31.3594 23.3456 31.3594 24.0989C31.3594 24.8522 31.9701 25.4629 32.7234 25.4629Z" fill="white"/>
</g>
<defs>
<clipPath id="clip0_3_347">
<rect width="46.5582" height="46.5582" fill="white" transform="translate(0.442383 0.819824)"/>
</clipPath>
</defs>
</svg>
